<svg width="28" height="28" viewBox="0 0 28 28" fill="none" xmlns="http://www.w3.org/2000/svg">
<g id="rrow-up">
<g id="arrow-up">
<g id="arrow-up_2">
<path id="Vector" d="M19.1272 15.3587C18.9934 15.2815 18.888 15.1549 18.8433 14.9882L17.1937 8.83184L11.0374 10.4814C10.7152 10.5678 10.377 10.3725 10.2906 10.0503C10.2043 9.72802 10.3995 9.38985 10.7218 9.3035L17.4671 7.49611C17.7893 7.40976 18.1275 7.60499 18.2139 7.92726L20.0213 14.6726C20.1076 14.9948 19.9124 15.333 19.5901 15.4193C19.4305 15.4681 19.2611 15.436 19.1272 15.3587Z" fill="white"/>
<path id="Vector_2" d="M10.4057 20.5903C10.1169 20.4236 10.0156 20.0457 10.1824 19.7569L17.0279 7.90008C17.1947 7.61124 17.5725 7.51 17.8614 7.67676C18.1502 7.84353 18.2515 8.22135 18.0847 8.5102L11.2392 20.367C11.0724 20.6559 10.6946 20.7571 10.4057 20.5903Z" fill="white"/>
</g>
</g>
</g>
</svg>
