<svg width="1170" height="263" viewBox="0 0 1170 263" fill="none" xmlns="http://www.w3.org/2000/svg">
    <g opacity="0.3">
        <path d="M91.487 0.405273C91.9225 1.7289 92.4455 3.05036 93.0539 4.36714C100.152 19.7299 118.954 34.5603 146.73 44.6676C202.216 64.8584 293.264 66.0666 396.159 14.898C405.969 10.0196 415.817 5.1807 425.673 0.405273H431.123C420.015 5.76768 408.907 11.2171 397.842 16.7194C294.237 68.2415 202.035 67.2492 145.396 46.6389C117.11 36.3456 97.6297 21.1254 90.2127 5.07349C89.4962 3.52291 88.8929 1.96554 88.4054 0.405273H91.487Z" fill="white" fill-opacity="0.34"/>
        <path d="M111.499 263C108.61 251.607 103.49 239.709 96.3101 227.494C77.3476 195.229 44.0867 160.861 0 127.926V124.793C45.3585 158.365 79.6222 193.541 99.065 226.622C106.396 239.097 111.63 251.29 114.55 263H111.499Z" fill="white" fill-opacity="0.34"/>
        <path d="M503.165 263C493.35 206.499 453.388 163.136 398.394 135.128C334.753 102.715 250.927 90.844 170.304 103.073C150.12 106.135 136.96 110.1 129.419 114.833C125.674 117.184 123.345 119.703 122.197 122.383C121.048 125.063 121.044 127.985 122.128 131.179C124.311 137.615 130.862 145.028 140.91 153.418C150.929 161.784 164.285 171.01 179.866 181.076C192.161 189.019 205.833 197.478 220.31 206.435C247.922 223.518 278.462 242.414 307.966 263H303.609C274.967 243.138 245.409 224.848 218.537 208.22C204.012 199.233 190.271 190.73 177.884 182.727C162.277 172.645 148.805 163.344 138.656 154.87C128.536 146.419 121.58 138.678 119.216 131.71C118.026 128.203 117.989 124.861 119.335 121.722C120.681 118.583 123.375 115.73 127.468 113.161C135.602 108.057 149.38 104 169.696 100.918C251.073 88.5747 335.747 100.542 400.106 133.32C455.875 161.723 496.349 205.735 506.189 263H503.165Z" fill="white" fill-opacity="0.34"/>
        <path d="M972.461 263C976.304 261.104 980.363 259.125 984.619 257.049C988.636 255.09 992.828 253.045 997.179 250.906C1018.85 240.249 1044.57 227.182 1072.55 210.435C1100.41 193.762 1113.68 177.407 1116.99 162.929C1120.29 148.48 1113.71 135.741 1101.4 126.177C1076.68 106.982 1028.97 100.655 992.359 119.402C954.674 138.695 892.191 144.158 844.223 125.106C842.328 124.353 840.455 123.561 838.607 122.731C812.998 177.892 768.766 226.411 720.856 263H716.685C765.296 226.294 810.246 177.291 835.997 121.525C815.575 111.812 798.467 97.1834 788.087 76.7469C778.037 56.9621 774.313 31.7809 779.905 0.405273H782.931C777.314 31.6427 781.026 56.5434 790.898 75.9786C800.938 95.7443 817.373 109.906 836.982 119.368C853.792 82.1343 862.008 41.9358 857.047 0.405273H860.062C865.04 42.3955 856.655 83.0096 839.59 120.591C841.581 121.497 843.603 122.357 845.652 123.17C892.559 141.802 953.826 136.446 990.641 117.597C1028.53 98.2016 1077.88 104.71 1103.58 124.666C1116.47 134.677 1123.42 148.093 1119.95 163.293C1116.48 178.466 1102.66 195.255 1074.45 212.14C1046.36 228.951 1020.55 242.061 998.85 252.733C994.456 254.894 990.236 256.952 986.202 258.92C983.321 260.325 980.536 261.684 977.851 263H972.461Z" fill="white" fill-opacity="0.34"/>
        <path d="M985.412 0.405273C999.87 5.86739 1012.19 9.12254 1022.9 11.1147C1037.01 13.7402 1048.29 14.1786 1058.15 14.562L1058.15 14.562C1061.59 14.6958 1064.86 14.8229 1068.01 15.0339C1074.08 15.4398 1079.72 16.1624 1085.21 17.8946C1090.71 19.6312 1095.98 22.3566 1101.39 26.6936C1112.14 35.3247 1123.51 50.408 1138.39 77.0054C1148.79 95.593 1159.58 110.915 1170 123.907V128.204C1158.72 114.455 1146.91 98.044 1135.61 77.8408C1120.74 51.2591 1109.54 36.498 1099.17 28.1782C1094.02 24.0398 1089.08 21.5132 1084.02 19.916C1078.95 18.3145 1073.67 17.6216 1067.74 17.2253C1064.74 17.0248 1061.57 16.9017 1058.19 16.7705C1048.28 16.3857 1036.59 15.9314 1022.16 13.2477C1009.98 10.9809 995.832 7.12828 979.007 0.405273H985.412Z" fill="white" fill-opacity="0.34"/>
    </g>
</svg>
