<svg width="97" height="97" viewBox="0 0 97 97" fill="none" xmlns="http://www.w3.org/2000/svg">
<path d="M42.2334 4.44436C44.6122 -1.03857 52.3878 -1.03857 54.7666 4.44436C56.5169 8.47875 61.5678 9.83215 65.1008 7.21341C69.9023 3.65442 76.6363 7.54226 75.9548 13.48C75.4534 17.849 79.151 21.5466 83.52 21.0452C89.4577 20.3637 93.3456 27.0977 89.7866 31.8992C87.1678 35.4322 88.5213 40.4831 92.5556 42.2334C98.0386 44.6122 98.0386 52.3878 92.5556 54.7666C88.5213 56.5169 87.1679 61.5678 89.7866 65.1008C93.3456 69.9023 89.4577 76.6363 83.52 75.9548C79.151 75.4534 75.4534 79.151 75.9548 83.52C76.6363 89.4577 69.9023 93.3456 65.1008 89.7866C61.5678 87.1678 56.5169 88.5213 54.7666 92.5556C52.3878 98.0386 44.6122 98.0386 42.2334 92.5556C40.4831 88.5213 35.4322 87.1679 31.8992 89.7866C27.0977 93.3456 20.3637 89.4577 21.0452 83.52C21.5466 79.151 17.849 75.4534 13.48 75.9548C7.54226 76.6363 3.65442 69.9023 7.21341 65.1008C9.83215 61.5678 8.47875 56.5169 4.44436 54.7666C-1.03857 52.3878 -1.03857 44.6122 4.44436 42.2334C8.47875 40.4831 9.83215 35.4322 7.21341 31.8992C3.65442 27.0977 7.54226 20.3637 13.48 21.0452C17.849 21.5466 21.5466 17.849 21.0452 13.48C20.3637 7.54226 27.0977 3.65442 31.8992 7.21341C35.4322 9.83215 40.4831 8.47875 42.2334 4.44436Z" fill="#2FBFBF"/>
</svg>
