<svg width="24" height="24" viewBox="0 0 24 24" fill="none" xmlns="http://www.w3.org/2000/svg">
<g clip-path="url(#clip0_126_144)">
<path d="M23.93 13.3443C23.93 13.3443 22.6494 9.40012 22.6491 9.39942L20.1079 1.57575C19.9704 1.16784 19.6042 0.905151 19.1741 0.905151L19.1685 0.905198C18.7384 0.907448 18.3745 1.17276 18.2414 1.58156L15.8241 9.02376H8.18034L5.75854 1.58118C5.62551 1.17276 5.26162 0.907448 4.83135 0.905198L4.82582 0.905151C4.3957 0.905151 4.02956 1.16789 3.89001 1.58179L1.35506 9.40059L0.0699773 13.3444C-0.120335 13.9306 0.0861961 14.5677 0.584196 14.9299L11.6789 22.991C11.7898 23.0707 11.9262 23.1065 12.0618 23.0915C12.1548 23.0804 12.2434 23.0459 12.3194 22.9912L23.416 14.9297C23.9138 14.5677 24.1203 13.9306 23.93 13.3443ZM21.0155 10.1129L13.474 19.7759L16.6154 10.1129H21.0155V10.1129ZM11.9997 20.7879L11.7263 19.9458L8.53429 10.1129H15.4701L11.9997 20.7879ZM7.38909 10.1129L10.5261 19.7763L2.98865 10.1129H7.38909ZM19.1756 2.2311L21.3819 9.02371H16.9693L19.1756 2.2311ZM4.82456 2.23092L7.0349 9.02371H2.62227L4.82456 2.23092ZM1.22456 14.0489C1.16843 14.008 1.1267 13.9504 1.10536 13.8844C1.08401 13.8183 1.08416 13.7472 1.10577 13.6813L2.0737 10.7108L3.48271 12.5173L9.1934 19.8388L1.22456 14.0489ZM22.7756 14.0487L14.8079 19.837L17.0678 16.9415L21.93 10.7115L22.894 13.6807C22.9157 13.7467 22.916 13.8178 22.8947 13.8839C22.8734 13.9501 22.8317 14.0077 22.7756 14.0487Z" fill="#A0A0A0"/>
</g>
<defs>
<clipPath id="clip0_126_144">
<rect width="24" height="24" fill="white"/>
</clipPath>
</defs>
</svg>
