<svg width="46" height="45" viewBox="0 0 46 45" fill="none" xmlns="http://www.w3.org/2000/svg">
<path fill-rule="evenodd" clip-rule="evenodd" d="M4.09 23.5392C5.51538 17.7436 5.42204 12.1625 5.59286 6.28388C5.62606 5.13583 4.72421 4.18136 3.57962 4.14678C2.43433 4.1122 1.47852 5.01822 1.44463 6.16628C1.2828 11.7405 1.41352 17.0451 0.060761 22.5502C-0.213112 23.6636 0.468126 24.7909 1.58021 25.0607C2.69161 25.3373 3.81682 24.6527 4.09 23.5392Z" fill="#2FBFBF"/>
<path fill-rule="evenodd" clip-rule="evenodd" d="M16.2016 34.7704C25.8715 25.9317 34.9826 14.5619 41.3508 3.08141C41.9062 2.0786 41.5444 0.81292 40.543 0.259644C39.5416 -0.293636 38.2774 0.0660248 37.722 1.06884C31.564 12.169 22.7524 23.1654 13.402 31.7066C12.5569 32.4812 12.4981 33.7952 13.2706 34.639C14.0431 35.4827 15.3564 35.5449 16.2016 34.7704Z" fill="#2FBFBF"/>
<path fill-rule="evenodd" clip-rule="evenodd" d="M18.6503 44.4251C27.4944 45.8843 36.6103 43.3946 44.6522 39.8744C45.7014 39.411 46.18 38.1869 45.7214 37.1426C45.2622 36.0914 44.0374 35.6141 42.9882 36.0706C35.6642 39.2796 27.381 41.6587 19.3259 40.3309C18.1959 40.1441 17.1274 40.9118 16.9413 42.0391C16.7546 43.1664 17.5209 44.2383 18.6503 44.4251Z" fill="#2FBFBF"/>
</svg>
