<svg width="46" height="46" viewBox="0 0 46 46" fill="none" xmlns="http://www.w3.org/2000/svg">
    <g id="shapes">
        <path id="Vector" fill-rule="evenodd" clip-rule="evenodd" d="M4.09 23.9445C5.51538 18.1489 5.42204 12.5677 5.59286 6.68915C5.62606 5.5411 4.72421 4.58664 3.57962 4.55206C2.43433 4.51748 1.47852 5.4235 1.44463 6.57155C1.2828 12.1458 1.41352 17.4503 0.060761 22.9554C-0.213112 24.0689 0.468126 25.1962 1.58021 25.4659C2.69161 25.7426 3.81682 25.0579 4.09 23.9445Z" fill="white"/>
        <path id="Vector_2" fill-rule="evenodd" clip-rule="evenodd" d="M16.2016 35.1755C25.8715 26.3369 34.9826 14.9671 41.3508 3.48656C41.9062 2.48375 41.5444 1.21807 40.543 0.664795C39.5416 0.111515 38.2774 0.471176 37.722 1.474C31.564 12.5741 22.7524 23.5706 13.402 32.1118C12.5569 32.8864 12.4981 34.2004 13.2706 35.0441C14.0431 35.8879 15.3564 35.9501 16.2016 35.1755Z" fill="white"/>
        <path id="Vector_3" fill-rule="evenodd" clip-rule="evenodd" d="M18.6503 44.8303C27.4944 46.2896 36.6103 43.7999 44.6522 40.2797C45.7014 39.8163 46.18 38.5922 45.7214 37.5479C45.2622 36.4967 44.0374 36.0194 42.9882 36.4759C35.6642 39.6849 27.381 42.064 19.3259 40.7361C18.1959 40.5494 17.1274 41.3171 16.9413 42.4444C16.7546 43.5717 17.5209 44.6436 18.6503 44.8303Z" fill="white"/>
    </g>
</svg>
