<svg width="138" height="131" viewBox="0 0 138 131" fill="none" xmlns="http://www.w3.org/2000/svg">
<g clip-path="url(#clip0_126_54)">
<path d="M105.84 44.6814C106.458 44.9502 108.863 44.1036 111.69 43.2952C114.518 42.4868 117.606 41.0633 119.589 40.1783C118.709 43.2924 117.83 46.4066 116.983 49.0978C114.15 58.2096 109.888 66.553 103.872 72.8214C97.8568 79.0897 89.893 83.0523 81.5741 83.3631C73.45 83.9044 65.3606 81.2551 59.1246 76.6446C53.0834 72.2646 48.7337 65.27 49.258 58.5041C49.5201 55.1211 50.8219 52.0453 53.3254 49.93C55.6013 48.007 58.8513 47.2369 61.8081 47.5049C64.9598 48.0034 67.6235 49.3093 69.5717 51.6151C71.7475 53.7285 72.8181 56.3805 73.4335 59.4172C74.4695 65.2599 72.9711 70.8729 69.6538 75.2566C66.7589 79.6785 62.6623 83.1398 58.2088 85.7172C53.9829 88.1022 49.595 89.8338 45.2726 90.7196C40.9503 91.6055 36.8882 91.8762 32.859 91.724C25.2229 91.4579 18.9851 89.6151 14.2749 87.272C4.62686 82.7782 1.1529 78.205 0.47013 78.7819C0.242542 78.9742 0.209771 79.397 0.956277 80.7422C1.93037 81.8951 3.68373 83.9702 7.28878 86.8519C11.1214 89.5413 17.0333 92.845 26.228 94.9557C30.8417 95.7996 36.333 96.2972 42.5726 95.3721C48.8121 94.4471 55.7673 92.5223 62.4966 88.022C66.7553 85.2141 70.4295 81.7145 73.3244 77.2925C75.9917 73.0629 77.8798 67.911 77.6558 62.5677C77.6266 57.455 75.713 51.9586 71.7511 48.1929C67.7892 44.4272 62.2014 42.4304 57.0342 43.2397C54.2394 43.6252 51.6066 44.6642 49.7531 46.6254C47.7048 48.3561 46.241 50.7785 45.2323 52.8163C43.377 57.5453 43.601 62.8886 45.3854 67.3087C48.954 76.1488 56.3589 82.1428 64.1881 85.4073C72.0172 88.6718 80.2705 89.2067 87.4205 87.5125C95.61 86.1254 101.657 82.202 106.469 77.7409C110.858 73.2415 114.209 68.435 116.486 63.7442C118.764 59.0535 120.359 54.9396 121.726 51.018C123.452 45.2127 124.006 43.5595 124.137 41.868C126.637 45.2883 131.247 51.6678 132.904 52.2438C131.9 45.9782 126.933 38.7147 123.882 34.1798C122.809 34.2955 110.847 40.4509 105.84 44.6814Z" fill="#2FBFBF"/>
</g>
<defs>
<clipPath id="clip0_126_54">
<rect width="66.7106" height="123.352" fill="white" transform="translate(43.6543 130.815) rotate(-130.196)"/>
</clipPath>
</defs>
</svg>
