<svg width="543" height="543" viewBox="0 0 543 543" fill="none" xmlns="http://www.w3.org/2000/svg">
<path d="M279.162 282.573H70.9824V67.2656H279.161V282.573H279.162ZM75.3264 278.229H274.817V71.6096H75.3264V278.229Z" fill="#EBEBEB"/>
<path d="M175.551 72.7446H171.207V280.401H175.551V72.7446Z" fill="#EBEBEB"/>
<path d="M283.1 76.0481H67.0449V82.0971H283.1V76.0481Z" fill="#EBEBEB"/>
<path d="M283.1 82.853H67.0449V88.902H283.1V82.853Z" fill="#EBEBEB"/>
<path d="M283.1 89.658H67.0449V95.707H283.1V89.658Z" fill="#EBEBEB"/>
<path d="M283.1 96.4639H67.0449V102.513H283.1V96.4639Z" fill="#EBEBEB"/>
<path d="M283.1 103.269H67.0449V109.318H283.1V103.269Z" fill="#EBEBEB"/>
<path d="M283.1 110.073H67.0449V116.123H283.1V110.073Z" fill="#EBEBEB"/>
<path d="M283.1 116.88H67.0449V122.929H283.1V116.88Z" fill="#EBEBEB"/>
<path d="M283.1 123.684H67.0449V129.733H283.1V123.684Z" fill="#EBEBEB"/>
<path d="M283.1 130.489H67.0449V136.538H283.1V130.489Z" fill="#EBEBEB"/>
<path d="M270.198 74.821H269.112V214.249H270.198V74.821Z" fill="#263238"/>
<path d="M271.585 219.308H267.729L268.696 213.769H270.618L271.585 219.308Z" fill="#263238"/>
<path d="M274.112 74.821H273.026V276.526H274.112V74.821Z" fill="#263238"/>
<path d="M275.497 280.597H271.642L272.608 275.059H274.53L275.497 280.597Z" fill="#263238"/>
<path d="M289.842 66.4175H60.3037V79.0726H289.842V66.4175Z" fill="#DBDBDB"/>
<path d="M405.559 95.9165C405.559 95.0086 405.679 92.5879 405.679 91.5584C405.679 87.1395 404.106 85.1412 399.99 85.0196C398.052 84.8991 396.902 83.749 396.902 82.1146C396.902 80.479 398.052 79.3301 399.99 79.2084C404.106 79.0271 405.679 77.0896 405.679 72.6099C405.679 71.5814 405.559 69.1597 405.559 68.2518C405.559 62.3798 408.04 58.6266 417.423 56.5686C419.3 56.144 420.752 57.2951 420.752 59.0501C420.752 60.5032 419.783 61.2905 419.057 61.5316C413.186 63.3474 412.337 65.224 412.337 69.341C412.337 70.5519 412.458 72.5491 412.458 73.8208C412.458 78.5427 410.158 80.8429 406.162 82.1146C410.218 83.446 412.458 85.6853 412.458 90.4073C412.458 91.679 412.337 93.6761 412.337 94.887C412.337 99.0029 413.185 100.881 419.057 102.696C419.783 102.939 420.752 103.725 420.752 105.178C420.752 106.934 419.299 108.084 417.423 107.661C408.04 105.603 405.559 101.849 405.559 95.9165Z" fill="#EBEBEB"/>
<path d="M441.031 68.2527C441.031 69.1606 440.91 71.5813 440.91 72.6109C440.91 77.0906 442.545 79.028 446.662 79.2094C448.539 79.3299 449.689 80.48 449.689 82.1155C449.689 83.75 448.537 84.899 446.662 85.0206C442.545 85.1411 440.91 87.1394 440.91 91.5594C440.91 92.5878 441.031 95.0096 441.031 95.9175C441.031 101.85 438.55 105.604 429.166 107.662C427.291 108.085 425.838 106.935 425.838 105.179C425.838 103.726 426.807 102.938 427.593 102.697C433.405 100.882 434.252 99.005 434.252 94.888C434.252 93.6771 434.132 91.6799 434.132 90.4082C434.132 85.6863 436.432 83.3862 440.427 82.1155C436.371 80.783 434.132 78.5437 434.132 73.8218C434.132 72.55 434.252 70.5529 434.252 69.342C434.252 65.2261 433.405 63.3484 427.593 61.5326C426.806 61.2904 425.838 60.5041 425.838 59.0511C425.838 57.2961 427.291 56.1449 429.166 56.5696C438.55 58.6275 441.031 62.3807 441.031 68.2527Z" fill="#EBEBEB"/>
<path d="M439.834 279.608C440.851 280.666 440.851 282.251 439.834 283.268C439.305 283.755 438.695 284 438.046 284C437.354 284 436.703 283.755 436.175 283.268L424.748 271.678C424.626 271.637 424.586 271.556 424.543 271.434C424.503 271.392 424.422 271.352 424.422 271.352C424.341 271.231 424.341 271.149 424.3 271.028C424.22 270.986 424.179 270.906 424.179 270.865C424.138 270.783 424.138 270.66 424.098 270.62C424.098 270.499 424.017 270.457 424.017 270.416C424.017 270.294 424.017 270.213 424.017 270.132C424.017 270.05 423.977 270.01 423.977 269.887C423.977 269.847 424.017 269.725 424.017 269.684C424.017 269.603 424.017 269.481 424.017 269.4C424.017 269.318 424.098 269.278 424.098 269.237C424.138 269.115 424.138 269.034 424.179 268.912C424.179 268.871 424.22 268.871 424.22 268.831C424.3 268.709 424.341 268.546 424.422 268.465C424.422 268.465 424.422 268.383 424.503 268.383C424.543 268.302 424.625 268.18 424.748 268.099L436.175 256.509C437.19 255.534 438.858 255.534 439.834 256.509C440.851 257.525 440.851 259.152 439.834 260.169L430.196 269.887L439.834 279.608Z" fill="#EBEBEB"/>
<path d="M450.203 280.909L460.166 257.2C460.654 256.062 461.955 255.533 463.135 256.021C464.233 256.469 464.761 257.81 464.273 258.909L454.31 282.659C453.944 283.512 453.09 284 452.236 284C451.991 284 451.668 283.96 451.423 283.838C450.244 283.389 449.714 282.048 450.203 280.909Z" fill="#EBEBEB"/>
<path d="M483.956 271.352C483.956 271.352 483.956 271.394 483.916 271.394C483.834 271.475 483.753 271.597 483.631 271.678L472.205 283.268C471.717 283.756 471.025 284 470.375 284C469.683 284 469.074 283.756 468.544 283.268C467.527 282.251 467.527 280.666 468.544 279.608L478.182 269.888L468.544 260.17C467.527 259.153 467.527 257.526 468.544 256.51C469.519 255.535 471.188 255.535 472.203 256.51L483.63 268.1C483.752 268.181 483.833 268.304 483.915 268.384C483.955 268.384 483.955 268.466 483.955 268.466C484.037 268.629 484.118 268.71 484.159 268.832C484.159 268.872 484.2 268.872 484.2 268.913C484.241 269.035 484.241 269.116 484.322 269.279C484.322 269.32 484.362 269.32 484.362 269.401C484.362 269.482 484.362 269.605 484.362 269.685C484.362 269.727 484.402 269.848 484.402 269.888C484.402 269.93 484.362 270.051 484.362 270.093C484.362 270.214 484.362 270.296 484.362 270.417C484.362 270.459 484.322 270.459 484.322 270.499C484.241 270.661 484.241 270.783 484.2 270.865C484.2 270.906 484.159 270.906 484.159 270.986C484.119 271.068 484.038 271.189 483.956 271.352Z" fill="#EBEBEB"/>
<path d="M510.264 174.124C510.264 178.634 506.775 182.329 502.345 182.657V182.68H453.886C448.332 182.68 443.83 178.179 443.83 172.624C443.83 167.387 447.833 163.08 452.946 162.61C453.236 153.508 460.704 146.216 469.878 146.216C477.18 146.216 483.405 150.836 485.783 157.311C487.136 156.627 488.66 156.248 490.279 156.248C495.626 156.248 499.998 160.417 500.316 165.682C500.767 165.606 501.233 165.568 501.707 165.568C506.433 165.568 510.264 169.4 510.264 174.124Z" fill="#DBDBDB"/>
<path d="M72.4688 456.942L122.226 456.678L171.984 456.583L271.5 456.4L371.016 456.581L420.774 456.676L470.531 456.942L420.774 457.208L371.016 457.303L271.5 457.484L171.984 457.302L122.226 457.206L72.4688 456.942Z" fill="#263238"/>
<path d="M93.4879 508.272C120.049 508.272 141.58 504.139 141.58 499.042C141.58 493.944 120.049 489.812 93.4879 489.812C66.9272 489.812 45.3955 493.944 45.3955 499.042C45.3955 504.139 66.9272 508.272 93.4879 508.272Z" fill="#EBEBEB"/>
<path d="M286.673 504.166C391.286 504.166 476.092 494.97 476.092 483.627C476.092 472.284 391.286 463.089 286.673 463.089C182.06 463.089 97.2539 472.284 97.2539 483.627C97.2539 494.97 182.06 504.166 286.673 504.166Z" fill="#EBEBEB"/>
<path d="M390.513 66.8899H304.598V121.696H390.513V66.8899Z" fill="white"/>
<path d="M391.056 122.239H304.055V66.3469H391.056V122.239ZM305.141 121.153H389.97V67.4329H305.141V121.153Z" fill="#EBEBEB"/>
<path d="M390.513 66.8899H304.598V77.2547H390.513V66.8899Z" fill="#2FBFBF"/>
<path d="M391.056 77.7977H304.055V66.3469H391.056V77.7977ZM305.141 76.7117H389.97V67.4329H305.141V76.7117Z" fill="#EBEBEB"/>
<path d="M314.327 72.1484C314.327 73.5884 313.16 74.7569 311.719 74.7569C310.278 74.7569 309.11 73.5895 309.11 72.1484C309.11 70.7072 310.278 69.5398 311.719 69.5398C313.16 69.5398 314.327 70.7072 314.327 72.1484Z" fill="#A6A6A6"/>
<path d="M324.979 72.1484C324.979 73.5884 323.811 74.7569 322.37 74.7569C320.929 74.7569 319.762 73.5895 319.762 72.1484C319.762 70.7072 320.929 69.5398 322.37 69.5398C323.811 69.5398 324.979 70.7072 324.979 72.1484Z" fill="#EBEBEB"/>
<path d="M335.631 72.1484C335.631 73.5884 334.464 74.7569 333.023 74.7569C331.581 74.7569 330.414 73.5895 330.414 72.1484C330.414 70.7072 331.581 69.5398 333.023 69.5398C334.464 69.5398 335.631 70.7072 335.631 72.1484Z" fill="white"/>
<path d="M319.426 97.7476C319.454 92.032 324.247 87.3839 330.02 87.3557C332.561 87.3557 334.87 88.193 336.689 89.607C337.382 90.1847 337.497 91.1947 336.978 91.9158C336.401 92.6369 335.332 92.7531 334.669 92.234C333.398 91.1947 331.811 90.6463 330.021 90.6463C328.029 90.6463 326.182 91.4543 324.825 92.7238C323.527 94.052 322.719 95.7842 322.719 97.7466C322.719 99.71 323.527 101.5 324.825 102.769C326.182 104.039 328.029 104.848 330.021 104.848C331.811 104.848 333.37 104.299 334.669 103.26C335.332 102.769 336.401 102.884 336.978 103.577C337.498 104.298 337.382 105.338 336.689 105.886C334.87 107.3 332.561 108.137 330.02 108.137C324.247 108.141 319.454 103.493 319.426 97.7476Z" fill="#EBEBEB"/>
<path d="M341.94 103.118C342.459 102.483 343.412 102.396 344.047 102.916C345.317 103.955 347.51 105.167 349.56 105.138C351.003 105.138 352.302 104.706 353.168 104.07C354.034 103.436 354.41 102.714 354.41 101.992C354.41 101.616 354.324 101.356 354.15 101.068C353.978 100.779 353.718 100.49 353.285 100.202C352.446 99.6536 351.033 99.1627 349.329 98.8456H349.271C347.914 98.586 346.644 98.2396 345.547 97.7194C344.45 97.1992 343.497 96.4781 342.862 95.4681C342.429 94.7753 342.199 93.9673 342.199 93.1006C342.199 91.3685 343.179 89.8676 344.508 88.8859C345.864 87.9041 347.626 87.3557 349.502 87.3557C352.274 87.3557 354.323 88.7132 355.796 89.6645C356.459 90.1261 356.661 91.0503 356.2 91.7138C355.766 92.4067 354.842 92.6087 354.149 92.1471C352.678 91.1654 351.263 90.2999 349.502 90.2999C348.203 90.2999 347.048 90.7038 346.268 91.2805C345.489 91.8583 345.171 92.4936 345.171 93.0996C345.171 93.446 345.23 93.6773 345.373 93.9075C345.518 94.1389 345.777 94.3984 346.153 94.658C346.902 95.1782 348.202 95.6397 349.761 95.9275H349.818C351.291 96.2164 352.647 96.5911 353.803 97.1395C354.986 97.7172 356.025 98.4677 356.688 99.5363C357.122 100.229 357.382 101.095 357.382 101.99C357.382 103.837 356.343 105.425 354.9 106.464C353.485 107.502 351.609 108.109 349.559 108.109C346.442 108.08 343.815 106.521 342.168 105.223C341.536 104.706 341.449 103.753 341.94 103.118Z" fill="#EBEBEB"/>
<path d="M360.905 103.118C361.424 102.483 362.377 102.396 363.012 102.916C364.282 103.955 366.475 105.167 368.525 105.138C369.968 105.138 371.267 104.706 372.133 104.07C372.999 103.436 373.375 102.714 373.375 101.992C373.375 101.616 373.289 101.356 373.115 101.068C372.942 100.779 372.683 100.49 372.25 100.202C371.412 99.6536 369.998 99.1627 368.294 98.8456H368.236C366.879 98.586 365.609 98.2396 364.512 97.7194C363.415 97.1992 362.461 96.4781 361.827 95.4681C361.394 94.7753 361.164 93.9673 361.164 93.1006C361.164 91.3685 362.144 89.8676 363.472 88.8859C364.829 87.9041 366.59 87.3557 368.467 87.3557C371.238 87.3557 373.288 88.7132 374.76 89.6645C375.424 90.1261 375.626 91.0503 375.164 91.7138C374.73 92.4067 373.807 92.6087 373.114 92.1471C371.642 91.1654 370.227 90.2999 368.467 90.2999C367.168 90.2999 366.013 90.7038 365.233 91.2805C364.454 91.8583 364.136 92.4936 364.136 93.0996C364.136 93.446 364.195 93.6773 364.338 93.9075C364.482 94.1389 364.742 94.3984 365.118 94.658C365.867 95.1782 367.167 95.6397 368.725 95.9275H368.783C370.256 96.2164 371.612 96.5911 372.768 97.1395C373.951 97.7172 374.99 98.4677 375.653 99.5363C376.086 100.229 376.347 101.095 376.347 101.99C376.347 103.837 375.308 105.425 373.864 106.464C372.449 107.502 370.574 108.109 368.523 108.109C365.407 108.08 362.78 106.521 361.133 105.223C360.501 104.706 360.414 103.753 360.905 103.118Z" fill="#EBEBEB"/>
<path d="M449.816 117.094H332.469V200.185H449.816V117.094Z" fill="white"/>
<path d="M450.36 200.728H331.928V116.552H450.361L450.36 200.728ZM333.014 199.642H449.275V117.638H333.014V199.642Z" fill="#EBEBEB"/>
<path d="M449.816 117.094H332.469V127.459H449.816V117.094Z" fill="#2FBFBF"/>
<path d="M450.36 128.001H331.928V116.552H450.361L450.36 128.001ZM333.014 126.915H449.275V117.638H333.014V126.915Z" fill="#EBEBEB"/>
<path d="M342.2 122.352C342.2 123.793 341.031 124.96 339.591 124.96C338.151 124.96 336.982 123.793 336.982 122.352C336.982 120.911 338.15 119.743 339.591 119.743C341.032 119.743 342.2 120.911 342.2 122.352Z" fill="#A6A6A6"/>
<path d="M352.852 122.352C352.852 123.793 351.684 124.96 350.243 124.96C348.802 124.96 347.635 123.793 347.635 122.352C347.635 120.911 348.802 119.743 350.243 119.743C351.684 119.743 352.852 120.911 352.852 122.352Z" fill="#EBEBEB"/>
<path d="M363.502 122.352C363.502 123.793 362.334 124.96 360.894 124.96C359.454 124.96 358.285 123.793 358.285 122.352C358.285 120.911 359.453 119.743 360.894 119.743C362.335 119.743 363.502 120.911 363.502 122.352Z" fill="white"/>
<path d="M349.13 148.077H343.588V150.101H349.13V148.077Z" fill="#EBEBEB"/>
<path d="M390.796 148.077H353.168V150.101H390.796V148.077Z" fill="#EBEBEB"/>
<path d="M404.727 148.077H394.201V150.101H404.727V148.077Z" fill="#2FBFBF"/>
<path d="M428.801 175.162H418.275V177.186H428.801V175.162Z" fill="#EBEBEB"/>
<path d="M425.209 148.077H407.014V150.101H425.209V148.077Z" fill="#A6A6A6"/>
<path d="M354.67 153.494H349.129V155.518H354.67V153.494Z" fill="#EBEBEB"/>
<path d="M382.994 153.494H358.57V155.518H382.994V153.494Z" fill="#A6A6A6"/>
<path d="M415.776 175.162H391.352V177.186H415.776V175.162Z" fill="#A6A6A6"/>
<path d="M375.721 169.745H353.168V171.769H375.721V169.745Z" fill="#A6A6A6"/>
<path d="M369.232 158.911H358.57V160.935H369.232V158.911Z" fill="#2FBFBF"/>
<path d="M411.902 164.328H401.24V166.352H411.902V164.328Z" fill="#A6A6A6"/>
<path d="M408.325 158.911H372.334V160.935H408.325V158.911Z" fill="#A6A6A6"/>
<path d="M389.159 175.162H353.168V177.186H389.159V175.162Z" fill="#2FBFBF"/>
<path d="M434.715 153.494H405.84V155.518H434.715V153.494Z" fill="#2FBFBF"/>
<path d="M403.553 153.494H385.613V155.518H403.553V153.494Z" fill="#EBEBEB"/>
<path d="M428.362 158.911H410.422V160.935H428.362V158.911Z" fill="#EBEBEB"/>
<path d="M354.67 158.911H349.129V160.935H354.67V158.911Z" fill="#EBEBEB"/>
<path d="M349.13 164.328H343.588V166.352H349.13V164.328Z" fill="#A6A6A6"/>
<path d="M368.627 164.328H353.168V166.352H368.627V164.328Z" fill="#EBEBEB"/>
<path d="M374.03 180.579H358.57V182.603H374.03V180.579Z" fill="#EBEBEB"/>
<path d="M418.599 185.997H393.701V188.021H418.599V185.997Z" fill="#2FBFBF"/>
<path d="M400.884 180.579H376.688V182.603H400.884V180.579Z" fill="#2FBFBF"/>
<path d="M390.837 185.997H370.895V188.021H390.837V185.997Z" fill="#EBEBEB"/>
<path d="M434.716 180.579H403.725V182.603H434.716V180.579Z" fill="#A6A6A6"/>
<path d="M368.052 185.997H358.57V188.021H368.052V185.997Z" fill="#A6A6A6"/>
<path d="M404.727 169.745H377.977V171.769H404.727V169.745Z" fill="#EBEBEB"/>
<path d="M429.535 169.745H407.014V171.769H429.535V169.745Z" fill="#2FBFBF"/>
<path d="M398.665 164.328H371.957V166.352H398.665V164.328Z" fill="#2FBFBF"/>
<path d="M349.13 169.745H343.588V171.769H349.13V169.745Z" fill="#EBEBEB"/>
<path d="M349.13 175.162H343.588V177.186H349.13V175.162Z" fill="#EBEBEB"/>
<path d="M354.67 180.579H349.129V182.603H354.67V180.579Z" fill="#A6A6A6"/>
<path d="M354.67 185.997H349.129V188.021H354.67V185.997Z" fill="#EBEBEB"/>
<path d="M347.012 142.746C347.203 142.944 347.203 143.24 347.012 143.43C346.913 143.521 346.8 143.567 346.677 143.567C346.548 143.567 346.427 143.521 346.328 143.43L344.19 141.262C344.167 141.255 344.16 141.24 344.152 141.217C344.145 141.209 344.13 141.202 344.13 141.202C344.114 141.179 344.114 141.164 344.107 141.141C344.091 141.133 344.084 141.118 344.084 141.11C344.076 141.095 344.076 141.072 344.069 141.065C344.069 141.042 344.053 141.034 344.053 141.027C344.053 141.004 344.053 140.989 344.053 140.973C344.053 140.958 344.045 140.951 344.045 140.928C344.045 140.92 344.053 140.897 344.053 140.89C344.053 140.875 344.053 140.852 344.053 140.837C344.053 140.821 344.069 140.814 344.069 140.806C344.076 140.783 344.076 140.768 344.084 140.745C344.084 140.738 344.092 140.738 344.092 140.73C344.108 140.707 344.114 140.677 344.13 140.662C344.13 140.662 344.13 140.647 344.146 140.647C344.154 140.631 344.168 140.609 344.192 140.593L346.329 138.426C346.519 138.242 346.831 138.242 347.013 138.426C347.204 138.616 347.204 138.92 347.013 139.11L345.211 140.928L347.012 142.746Z" fill="#2FBFBF"/>
<path d="M348.95 142.99L350.813 138.555C350.905 138.342 351.148 138.243 351.368 138.335C351.574 138.418 351.672 138.669 351.581 138.874L349.718 143.316C349.649 143.476 349.49 143.567 349.33 143.567C349.284 143.567 349.224 143.559 349.178 143.536C348.957 143.454 348.859 143.203 348.95 142.99Z" fill="#2FBFBF"/>
<path d="M355.262 141.202C355.262 141.202 355.262 141.209 355.254 141.209C355.238 141.224 355.224 141.247 355.2 141.262L353.063 143.43C352.972 143.521 352.842 143.567 352.721 143.567C352.591 143.567 352.477 143.521 352.38 143.43C352.189 143.24 352.189 142.944 352.38 142.746L354.181 140.928L352.38 139.11C352.189 138.92 352.189 138.616 352.38 138.426C352.562 138.242 352.874 138.242 353.064 138.426L355.201 140.593C355.225 140.609 355.239 140.631 355.255 140.647C355.263 140.647 355.263 140.662 355.263 140.662C355.278 140.692 355.292 140.707 355.301 140.73C355.301 140.738 355.309 140.738 355.309 140.745C355.316 140.768 355.316 140.783 355.331 140.815C355.331 140.823 355.339 140.823 355.339 140.838C355.339 140.853 355.339 140.876 355.339 140.891C355.339 140.899 355.348 140.921 355.348 140.929C355.348 140.937 355.339 140.959 355.339 140.967C355.339 140.99 355.339 141.005 355.339 141.028C355.339 141.035 355.331 141.035 355.331 141.043C355.316 141.073 355.316 141.096 355.309 141.111C355.309 141.119 355.301 141.119 355.301 141.134C355.291 141.149 355.277 141.172 355.262 141.202Z" fill="#2FBFBF"/>
<path d="M504.033 192.916H418.117V247.722H504.033V192.916Z" fill="white"/>
<path d="M504.575 248.264H417.574V192.373H504.575V248.264ZM418.66 247.178H503.489V193.459H418.66V247.178Z" fill="#EBEBEB"/>
<path d="M504.033 192.916H418.117V203.281H504.033V192.916Z" fill="#2FBFBF"/>
<path d="M504.575 203.823H417.574V192.373H504.575V203.823ZM418.66 202.737H503.489V193.459H418.66V202.737Z" fill="#EBEBEB"/>
<path d="M427.846 198.173C427.846 199.613 426.677 200.782 425.237 200.782C423.797 200.782 422.629 199.614 422.629 198.173C422.629 196.732 423.796 195.564 425.237 195.564C426.679 195.564 427.846 196.732 427.846 198.173Z" fill="#A6A6A6"/>
<path d="M438.498 198.173C438.498 199.613 437.331 200.782 435.89 200.782C434.45 200.782 433.281 199.614 433.281 198.173C433.281 196.732 434.449 195.564 435.89 195.564C437.331 195.564 438.498 196.732 438.498 198.173Z" fill="#EBEBEB"/>
<path d="M449.151 198.173C449.151 199.613 447.982 200.782 446.542 200.782C445.102 200.782 443.934 199.614 443.934 198.173C443.934 196.732 445.101 195.564 446.542 195.564C447.983 195.564 449.151 196.732 449.151 198.173Z" fill="white"/>
<path d="M434.158 223.773C434.186 218.058 438.979 213.411 444.752 213.381C447.292 213.381 449.602 214.219 451.421 215.633C452.114 216.21 452.229 217.22 451.71 217.941C451.132 218.664 450.064 218.779 449.4 218.26C448.131 217.22 446.543 216.672 444.753 216.672C442.761 216.672 440.914 217.48 439.558 218.749C438.259 220.078 437.451 221.81 437.451 223.772C437.451 225.736 438.259 227.525 439.558 228.796C440.914 230.066 442.761 230.875 444.753 230.875C446.543 230.875 448.101 230.326 449.4 229.287C450.064 228.796 451.132 228.911 451.71 229.604C452.23 230.326 452.114 231.366 451.421 231.913C449.602 233.327 447.292 234.164 444.752 234.164C438.979 234.165 434.188 229.518 434.158 223.773Z" fill="#EBEBEB"/>
<path d="M461.841 225.591H457.742C456.876 225.591 456.154 224.898 456.154 224.004C456.154 223.138 456.876 222.416 457.742 222.416H461.841V218.403C461.841 217.479 462.563 216.758 463.487 216.758C464.382 216.758 465.132 217.48 465.132 218.403V222.416H469.231C470.097 222.416 470.819 223.138 470.819 224.004C470.819 224.898 470.097 225.591 469.231 225.591H465.132V229.604C465.132 230.528 464.383 231.249 463.487 231.249C462.563 231.249 461.841 230.527 461.841 229.604V225.591Z" fill="#EBEBEB"/>
<path d="M479.737 225.591H475.638C474.772 225.591 474.051 224.898 474.051 224.004C474.051 223.138 474.772 222.416 475.638 222.416H479.737V218.403C479.737 217.479 480.458 216.758 481.382 216.758C482.277 216.758 483.029 217.48 483.029 218.403V222.416H487.127C487.993 222.416 488.715 223.138 488.715 224.004C488.715 224.898 487.993 225.591 487.127 225.591H483.029V229.604C483.029 230.528 482.278 231.249 481.382 231.249C480.459 231.249 479.737 230.527 479.737 229.604V225.591Z" fill="#EBEBEB"/>
<path d="M490.341 101.855H431.811V123.524H490.341V101.855Z" fill="#455A64"/>
<path d="M440.256 117.185V107.574C440.256 107.069 440.647 106.678 441.152 106.678C441.657 106.678 442.064 107.069 442.064 107.574V111.483H446.283V107.574C446.283 107.069 446.674 106.678 447.179 106.678C447.684 106.678 448.091 107.069 448.091 107.574V117.185C448.091 117.69 447.684 118.081 447.179 118.081C446.674 118.081 446.283 117.69 446.283 117.185V113.275H442.064V117.185C442.064 117.69 441.657 118.081 441.152 118.081C440.647 118.081 440.256 117.691 440.256 117.185Z" fill="white"/>
<path d="M458.776 108.487H456.186V117.185C456.186 117.69 455.795 118.081 455.29 118.081C454.802 118.081 454.396 117.69 454.396 117.185V108.487H451.822C451.317 108.487 450.926 108.063 450.926 107.575C450.926 107.07 451.317 106.679 451.822 106.679H458.776C459.265 106.679 459.672 107.07 459.672 107.575C459.672 108.063 459.265 108.487 458.776 108.487Z" fill="white"/>
<path d="M472.167 107.575V117.186C472.167 117.674 471.742 118.082 471.255 118.082C470.749 118.082 470.359 117.674 470.359 117.186V110.329L468.013 113.587C467.834 113.831 467.573 113.961 467.28 113.961H467.264H467.246C466.953 113.961 466.677 113.831 466.497 113.587L464.168 110.329V117.186C464.168 117.674 463.76 118.082 463.255 118.082C462.767 118.082 462.359 117.674 462.359 117.186V107.575C462.359 107.086 462.767 106.679 463.255 106.679C463.273 106.679 463.273 106.679 463.304 106.679C463.565 106.679 463.858 106.809 464.021 107.053L467.263 111.549L470.503 107.053C470.682 106.809 470.943 106.679 471.236 106.679C471.236 106.679 471.236 106.679 471.254 106.679C471.744 106.695 472.167 107.086 472.167 107.575Z" fill="white"/>
<path d="M476.109 117.185V107.574C476.109 107.085 476.5 106.678 477.005 106.678C477.51 106.678 477.918 107.085 477.918 107.574V116.273H482.332C482.805 116.273 483.227 116.68 483.227 117.185C483.227 117.673 482.803 118.081 482.332 118.081H477.054C477.023 118.081 477.023 118.081 477.023 118.081C477.005 118.081 477.005 118.081 477.005 118.081C476.501 118.081 476.109 117.673 476.109 117.185Z" fill="white"/>
<path d="M342.539 171.588H294.306V193.257H342.539V171.588Z" fill="#455A64"/>
<path d="M279.642 352.331L282.45 369.174L301.476 471.918H304.542L290.707 369.174L288.663 352.331H279.642Z" fill="#A6A6A6"/>
<path d="M288.663 352.331H279.642L282.45 369.174H290.707L288.663 352.331Z" fill="#263238"/>
<path d="M219.896 471.918H222.962L241.988 369.174L244.796 352.331H235.775L233.731 369.174L219.896 471.918Z" fill="#A6A6A6"/>
<path d="M235.775 352.331L233.731 369.174H241.988L244.797 352.331H235.775Z" fill="#263238"/>
<path d="M162.829 471.918H165.896L184.922 369.174L187.73 352.331H178.709L176.665 369.174L162.829 471.918Z" fill="#A6A6A6"/>
<path d="M176.665 369.174H184.922L187.73 352.331H178.709L176.665 369.174Z" fill="#263238"/>
<path d="M167.693 360.245H307.104V345.556H254.915L237.377 221.787H173.008L167.693 360.245Z" fill="#A6A6A6"/>
<path d="M167.693 360.245H175.293L180.246 221.787H173.008L167.693 360.245Z" fill="#DBDBDB"/>
<path d="M259.128 231.544L256.439 231.269C256.513 227.797 254.871 222.311 255.157 225.025C255.378 227.069 255.1 229.625 254.882 231.11L213.769 226.9C213.775 221.666 216.956 213.393 216.956 213.393C213.878 217.402 212.24 223.364 211.52 226.67L207.211 226.229C207.084 223.085 208.721 217.918 208.721 217.918C207.328 219.879 206.224 223.71 205.65 226.069L200.748 225.568C201.098 220.368 203.549 213.743 208.312 208.002C212.13 203.389 213.777 199.376 214.397 188.662C215.143 175.795 224.105 172.22 225.496 170.791C237.781 158.188 258.015 170.918 255.994 186.904C254.472 198.937 253.055 200.238 257.488 211.627C260.838 220.189 259.128 231.544 259.128 231.544Z" fill="#263238"/>
<path d="M232.196 226.199C238.42 248.875 243.611 266.445 250.112 270.715C255.355 274.161 262.717 276.578 270.29 278.273C279.174 280.247 288.381 281.244 294.831 281.779C297.371 281.992 299.487 282.124 300.987 282.23C304.701 282.467 310.779 257.948 308.15 254.957C307.544 254.274 305.097 253.745 301.666 253.31C290.11 251.86 267.355 251.52 265.999 250.227C264.591 248.873 257.261 239.168 247.314 226.405C240.45 217.585 234.826 214.994 232.525 217.444C231.235 218.833 230.999 221.824 232.196 226.199Z" fill="#EB9481"/>
<path d="M293.54 279.756C294.002 279.969 300.557 282.815 304.581 283.823C307.584 284.575 316.286 286.507 317.442 283.282C318.234 281.084 313.249 279.345 309.753 278.038C307.911 277.349 305.606 275.533 306.096 274.347C306.957 272.273 311.702 274.149 314.839 275.82C320.905 279.052 329.046 284.972 332.562 281.825C333.89 280.635 332.221 278.62 329.817 276.672C333.684 278.902 337.788 280.698 339.315 279.435C340.192 278.715 340.199 277.771 339.657 276.714C340.839 277.051 341.867 276.938 342.558 276.152C343.739 274.82 343.07 272.945 341.654 271.048C342.083 270.988 342.463 270.754 342.744 270.274C345.199 266.211 331.756 255.301 327.213 254.401C313.845 251.739 299.791 253.409 299.791 253.409C294.741 257.76 293.529 279.747 293.54 279.756Z" fill="#EB9481"/>
<path d="M312.569 266.684C315.708 267.057 318.853 268.062 321.533 269.76C324.704 271.77 327.268 274.58 330.214 276.876C330.293 276.938 330.19 277.063 330.114 276.997C328.725 275.804 327.205 274.747 325.769 273.61C324.367 272.502 322.987 271.338 321.51 270.331C318.804 268.482 315.81 267.226 312.561 266.738C312.525 266.733 312.535 266.68 312.569 266.684Z" fill="#263238"/>
<path d="M314.831 260.971C318.349 261.794 321.953 262.626 325.246 264.154C328.851 265.826 331.726 268.663 334.553 271.391C336.251 273.028 337.913 274.702 339.534 276.417C339.602 276.488 339.506 276.61 339.434 276.537C336.564 273.717 333.61 270.98 330.574 268.341C327.718 265.859 324.564 263.994 320.978 262.777C318.957 262.09 316.887 261.56 314.822 261.034C314.781 261.023 314.791 260.961 314.831 260.971Z" fill="#263238"/>
<path d="M318.371 255.916C321.78 256.486 324.755 256.972 327.817 258.675C331.872 260.929 335.85 264.832 337.247 266.216C338.789 267.745 340.279 269.324 341.745 270.927C341.805 270.992 341.693 271.097 341.631 271.033C338.286 267.535 334.7 264.228 330.932 261.191C329.131 259.74 327.185 258.49 325.022 257.651C322.882 256.821 320.607 256.391 318.367 255.939C318.352 255.936 318.356 255.914 318.371 255.916Z" fill="#263238"/>
<path d="M232.196 226.199C238.42 248.874 243.611 266.445 250.112 270.715C255.355 274.161 262.717 276.578 270.29 278.272L232.525 217.443C231.235 218.832 230.999 221.824 232.196 226.199Z" fill="#263238"/>
<path d="M230.235 222.386C230.884 229.284 235.417 241.171 235.417 241.171L259.377 239.136C259.377 239.136 250.121 225.558 240.479 217.844C239.5 217.063 238.487 216.451 237.508 216.032C233.301 214.225 229.624 215.908 230.235 222.386Z" fill="#2FBFBF"/>
<path d="M230.234 222.386C230.266 222.743 230.311 223.12 230.377 223.496C230.423 223.796 230.481 224.096 230.552 224.415C232.629 234.274 235.417 241.172 235.417 241.172L236.369 241.092L237.301 241.014L244.837 240.371L245.953 240.282L253.467 239.641L254.431 239.56L257.191 239.32L237.509 216.033C233.301 214.224 229.564 215.914 230.234 222.386Z" fill="#263238"/>
<path d="M404.243 471.867C401.658 472.725 325.779 472.095 322.977 470.282C322.64 470.086 322.554 463.223 322.586 453.829V453.644C322.586 447.693 322.054 440.743 321.283 433.803C321.24 433.445 321.196 433.075 321.153 432.717C319.154 415.2 315.723 398.171 315.723 398.171L363.215 397.998L369.762 432.717L369.881 433.803L371.217 446.748C371.217 446.748 381.447 451.07 390.353 455.36C390.363 455.371 390.374 455.371 390.374 455.382C395.869 458.01 400.637 460.41 401.734 461.29C404.579 463.592 406.827 471.031 404.243 471.867Z" fill="#EB9481"/>
<path d="M404.242 471.867C401.658 472.725 325.779 472.095 322.977 470.282C322.64 470.086 322.553 463.223 322.586 453.829V453.644C322.586 447.693 322.054 440.743 321.283 433.803C321.239 433.445 321.196 433.075 321.152 432.717H369.762L369.881 433.803L371.217 446.748C371.217 446.748 381.447 451.07 390.352 455.36C390.363 455.371 390.374 455.371 390.374 455.382C395.869 458.01 400.637 460.41 401.734 461.29C404.579 463.592 406.827 471.031 404.242 471.867Z" fill="#EBEBEB"/>
<path d="M404.556 472.155C401.892 473.014 325.919 472.198 323.04 470.336C321.945 469.636 320.931 457.909 322.111 444.967L371.092 445.552C371.092 445.552 399.096 458.875 402.032 461.256C404.954 463.638 407.22 471.296 404.556 472.155Z" fill="#2FBFBF"/>
<path d="M403.499 469.105C390.767 468.655 339.371 468.044 326.751 468.567C326.648 468.571 326.648 468.641 326.75 468.647C339.36 469.369 390.759 469.564 403.498 469.314C403.766 469.308 403.768 469.114 403.499 469.105Z" fill="#263238"/>
<path d="M397.175 458.471C394.156 458.315 391.189 459.717 389.523 461.498C387.922 463.21 386.543 465.625 386.604 468.267C386.606 468.343 386.745 468.347 386.758 468.268C387.539 463.292 392.119 458.964 397.174 458.629C397.275 458.624 397.278 458.476 397.175 458.471Z" fill="#263238"/>
<path d="M375.073 446.872C369.977 446.747 364.047 448.483 360.835 452.617C360.71 452.778 360.94 452.951 361.092 452.875C365.726 450.549 370.125 448.827 375.154 447.501C375.509 447.407 375.438 446.881 375.073 446.872Z" fill="#263238"/>
<path d="M378.991 448.448C373.895 448.322 367.965 450.058 364.753 454.193C364.628 454.353 364.858 454.527 365.01 454.451C369.644 452.125 374.043 450.403 379.073 449.077C379.427 448.983 379.356 448.458 378.991 448.448Z" fill="#263238"/>
<path d="M382.911 450.025C377.814 449.899 371.885 451.635 368.673 455.77C368.548 455.93 368.778 456.104 368.93 456.028C373.564 453.702 377.963 451.979 382.993 450.653C383.345 450.56 383.276 450.033 382.911 450.025Z" fill="#263238"/>
<path d="M386.829 451.602C381.732 451.476 375.803 453.212 372.59 457.347C372.466 457.506 372.696 457.681 372.848 457.605C377.482 455.279 381.881 453.556 386.91 452.23C387.265 452.136 387.194 451.61 386.829 451.602Z" fill="#263238"/>
<path d="M330.125 456.505C324.406 456.46 324.326 465.348 330.055 465.394C335.775 465.438 335.854 456.55 330.125 456.505Z" fill="#263238"/>
<path d="M380.729 433.33C378.171 431.162 374.899 433.218 373.284 435.422C370.669 438.992 368.845 444.017 368.512 448.408C368.505 448.516 368.586 448.56 368.67 448.555C368.775 448.922 369.203 449.233 369.582 448.977C373.238 446.505 377.453 444.317 380.242 440.797C381.87 438.741 383.147 435.379 380.729 433.33ZM374.358 444.096C372.589 445.355 370.77 446.52 369.049 447.844C369.986 445.314 370.81 442.756 372.003 440.321C372.572 439.16 373.178 437.978 373.902 436.902C375.027 435.23 380.077 431.024 380.524 436.576C380.77 439.637 376.466 442.595 374.358 444.096Z" fill="#263238"/>
<path d="M355.826 450.161C360.257 450.891 364.849 449.676 369.217 449.047C369.67 448.982 369.777 448.464 369.609 448.122C369.674 448.07 369.705 447.982 369.626 447.907C366.428 444.88 361.698 442.389 357.362 441.505C354.684 440.96 350.88 441.638 350.444 444.963C350.033 448.106 353.24 449.736 355.826 450.161ZM352.78 447.227C349.378 442.817 355.944 442.535 357.902 443.015C359.16 443.324 360.404 443.791 361.606 444.269C364.126 445.269 366.455 446.608 368.851 447.85C366.686 448.027 364.557 448.389 362.4 448.647C359.83 448.954 354.656 449.657 352.78 447.227Z" fill="#263238"/>
<path d="M373.704 428.928L318.636 428.692C318.636 428.692 299.547 355.25 295.077 350.115C286.797 340.604 220.927 345.204 203.04 325.478C185.708 306.361 203.04 271.762 203.04 271.762H251.814C251.814 271.762 252.703 281.828 254.588 290.334C254.588 290.334 315.963 300.137 334.19 318.993C348.098 333.382 373.704 428.928 373.704 428.928Z" fill="#37474F"/>
<path d="M369.91 420.296C366.517 420.02 363.137 419.675 359.736 419.537C356.328 419.399 352.919 419.324 349.51 419.271C342.737 419.166 335.959 419.179 329.189 419.306C325.364 419.378 321.54 419.545 317.714 419.568C317.611 419.569 317.634 419.736 317.736 419.736C324.611 419.695 331.503 420.004 338.378 420.183C345.107 420.358 351.837 420.575 358.567 420.679C362.352 420.736 366.128 420.629 369.911 420.598C370.074 420.598 370.072 420.31 369.91 420.296Z" fill="#263238"/>
<path d="M310.992 373.788C308.801 366.725 306.43 359.714 303.899 352.766C302.818 349.796 301.915 346.416 299.79 343.99C297.718 341.624 294.567 340.846 291.62 340.196C277.512 337.088 263.084 335.868 248.866 333.396C241.852 332.176 234.877 330.646 228.098 328.45C224.779 327.375 221.486 326.152 218.444 324.425C215.664 322.847 213.193 320.822 211.118 318.389C207.169 313.761 204.751 307.859 203.834 301.876C202.742 294.739 203.709 287.42 205.736 280.537C206.233 278.848 206.815 277.184 207.442 275.539C207.481 275.437 207.316 275.398 207.277 275.498C202.518 287.86 200.559 302.145 207.26 314.201C208.695 316.785 210.501 319.186 212.652 321.219C215.009 323.448 217.774 325.177 220.709 326.541C227.067 329.498 234.053 331.264 240.884 332.734C255.042 335.782 269.508 336.989 283.755 339.52C287.195 340.131 290.702 340.71 294.064 341.676C295.645 342.131 297.226 342.767 298.469 343.876C299.714 344.987 300.528 346.478 301.167 347.998C302.559 351.312 303.669 354.766 304.857 358.156C306.088 361.667 307.28 365.193 308.433 368.731C313.046 382.879 317.067 397.217 320.598 411.671C321.028 413.433 321.45 415.196 321.871 416.96C321.912 417.132 322.165 417.05 322.13 416.882C319.199 402.329 315.39 387.966 310.992 373.788Z" fill="#263238"/>
<path d="M321.348 484.682C318.677 485.236 243.417 475.614 240.843 473.485C240.539 473.247 241.343 466.437 242.407 457.098C243.026 451.613 244.264 444.858 245.719 437.93C249.596 419.522 255.092 399.909 255.092 399.909L304.429 408.141L294.448 443.197L291.027 455.197C291.027 455.197 301.171 461.333 309.511 466.644C309.522 466.655 309.533 466.654 309.533 466.665C314.67 469.934 319.133 472.877 320.11 473.876C322.673 476.505 324.02 484.15 321.348 484.682Z" fill="#EB9481"/>
<path d="M321.348 484.682C318.677 485.236 243.417 475.614 240.843 473.486C240.539 473.247 241.343 466.437 242.407 457.098C243.026 451.614 244.264 444.859 245.719 437.93L294.448 443.197L291.027 455.197C291.027 455.197 301.171 461.333 309.511 466.644C309.522 466.655 309.533 466.655 309.533 466.665C314.67 469.934 319.133 472.877 320.11 473.877C322.673 476.505 324.02 484.15 321.348 484.682Z" fill="#EBEBEB"/>
<path d="M321.66 484.944C318.915 485.492 243.535 475.971 240.89 473.792C239.882 472.97 241.003 461.295 243.658 448.573L291.173 454.687C291.173 454.687 317.757 471.125 320.401 473.827C323.03 476.527 324.404 484.395 321.66 484.944Z" fill="#2FBFBF"/>
<path d="M320.959 481.791C308.363 479.885 257.376 473.386 244.779 472.458C244.677 472.45 244.669 472.52 244.77 472.537C257.214 474.7 308.252 480.787 320.934 481.999C321.201 482.025 321.225 481.831 320.959 481.791Z" fill="#263238"/>
<path d="M315.895 470.503C312.914 470.003 309.805 471.056 307.947 472.634C306.16 474.151 304.513 476.393 304.271 479.024C304.264 479.099 304.402 479.119 304.424 479.043C305.771 474.189 310.816 470.413 315.877 470.662C315.978 470.666 315.997 470.52 315.895 470.503Z" fill="#263238"/>
<path d="M295.27 456.447C290.221 455.738 284.132 456.783 280.466 460.522C280.324 460.666 280.533 460.866 280.692 460.808C285.562 459.03 290.13 457.822 295.278 457.081C295.641 457.028 295.63 456.497 295.27 456.447Z" fill="#263238"/>
<path d="M298.981 458.462C293.933 457.753 287.843 458.797 284.178 462.536C284.036 462.681 284.244 462.881 284.404 462.822C289.274 461.043 293.841 459.836 298.99 459.095C299.353 459.043 299.342 458.513 298.981 458.462Z" fill="#263238"/>
<path d="M302.693 460.477C297.645 459.768 291.555 460.813 287.89 464.552C287.748 464.696 287.956 464.896 288.116 464.837C292.986 463.057 297.553 461.851 302.702 461.11C303.065 461.058 303.055 460.528 302.693 460.477Z" fill="#263238"/>
<path d="M306.405 462.492C301.356 461.783 295.267 462.827 291.602 466.566C291.46 466.711 291.668 466.911 291.828 466.852C296.698 465.073 301.265 463.866 306.414 463.125C306.777 463.074 306.767 462.543 306.405 462.492Z" fill="#263238"/>
<path d="M249.513 460.863C243.837 460.162 242.739 468.983 248.425 469.684C254.102 470.385 255.2 461.564 249.513 460.863Z" fill="#263238"/>
<path d="M302.439 443.641C300.148 441.195 296.661 442.862 294.804 444.867C291.797 448.114 289.407 452.896 288.574 457.219C288.555 457.326 288.63 457.379 288.715 457.384C288.776 457.76 289.166 458.118 289.572 457.908C293.487 455.872 297.926 454.181 301.1 451.004C302.952 449.149 304.607 445.955 302.439 443.641ZM294.876 453.607C292.975 454.655 291.034 455.603 289.172 456.722C290.393 454.315 291.504 451.87 292.968 449.588C293.667 448.5 294.405 447.394 295.247 446.41C296.557 444.878 302.055 441.278 301.863 446.845C301.757 449.912 297.143 452.357 294.876 453.607Z" fill="#263238"/>
<path d="M275.771 457.507C280.089 458.74 284.79 458.06 289.202 457.935C289.659 457.922 289.825 457.42 289.697 457.061C289.768 457.016 289.809 456.932 289.739 456.849C286.909 453.476 282.497 450.458 278.29 449.083C275.692 448.234 271.834 448.473 271.021 451.724C270.252 454.802 273.251 456.788 275.771 457.507ZM273.081 454.244C270.208 449.473 276.762 449.945 278.651 450.648C279.865 451.098 281.048 451.706 282.187 452.317C284.575 453.6 286.737 455.197 288.974 456.706C286.803 456.634 284.646 456.749 282.474 456.758C279.887 456.766 274.666 456.874 273.081 454.244Z" fill="#263238"/>
<path d="M306.681 441.106L246.63 433.799C246.63 433.799 267.559 351.132 266.61 349.9C263.297 345.625 212.625 347.341 195.346 330.164C177.049 311.98 194.61 271.762 194.61 271.762L240.182 271.939C240.182 271.939 240.483 289.961 242.542 291.657C243.899 292.788 306.903 303.423 317.155 316.794C332.825 337.23 306.681 441.106 306.681 441.106Z" fill="#37474F"/>
<path d="M321.458 324.17C320.585 321.887 319.39 319.762 317.831 317.877C316.13 315.823 314.021 314.155 311.784 312.723C307.09 309.718 301.824 307.49 296.662 305.432C291.304 303.296 285.817 301.484 280.264 299.926C274.625 298.345 268.919 297.005 263.193 295.783C257.486 294.565 251.745 293.598 246.008 292.535C245.107 292.368 244.204 292.205 243.303 292.042C246.262 290.864 249.198 289.627 252.143 288.406C252.315 288.335 252.243 288.091 252.059 288.13C246.097 289.373 240.377 291.429 235.282 294.82C235.204 294.872 235.257 295.005 235.351 294.973C237.913 294.128 240.43 293.177 242.931 292.186C248.126 293.273 253.302 294.433 258.483 295.588C264.082 296.834 269.668 298.163 275.187 299.727C286.127 302.827 297.012 306.477 307.127 311.734C311.711 314.117 316.042 317.089 318.618 321.694C321.01 325.969 321.726 330.954 321.838 335.787C321.964 341.208 321.4 346.642 320.914 352.034C320.363 358.159 319.722 364.275 318.976 370.38C318.229 376.48 313.935 408.483 313.452 409.841C313.383 410.036 313.699 410.159 313.789 409.974C314.422 408.673 321.837 362.455 322.389 356.247C322.898 350.523 323.448 344.763 323.538 339.015C323.617 334.025 323.257 328.87 321.458 324.17Z" fill="#263238"/>
<path d="M273.324 343.25C271.806 342.716 270.044 342.639 268.46 342.388L262.985 341.52C259.385 340.95 255.784 340.38 252.184 339.809C245.266 338.712 238.327 337.7 231.43 336.481C219.668 334.404 206.883 330.615 200.116 319.915C198.551 317.441 197.481 314.715 196.96 311.834C196.33 308.349 196.281 304.73 196.229 301.196C196.126 294.025 196.591 286.838 197.618 279.741C197.87 277.998 198.187 276.266 198.526 274.539C198.546 274.432 198.381 274.39 198.361 274.498C197.028 281.43 196.111 288.433 195.807 295.489C195.655 299.006 195.642 302.531 195.768 306.05C195.884 309.272 196.158 312.524 197.223 315.59C201.099 326.746 212.419 332.767 223.193 335.531C229.827 337.233 236.666 338.102 243.424 339.16C250.53 340.273 257.634 341.387 264.74 342.501C266.517 342.779 268.292 343.058 270.069 343.336C271.505 343.561 274.1 343.51 274.403 345.36C274.526 346.107 274.335 346.867 274.177 347.594C273.978 348.526 273.776 349.457 273.574 350.388C273.182 352.202 272.79 354.016 272.399 355.829C270.874 362.887 269.37 369.951 267.867 377.014C264.84 391.243 261.999 405.509 259.056 419.756C258.69 421.524 258.325 423.293 257.959 425.061C257.941 425.151 258.08 425.187 258.099 425.095C261.214 410.893 264.395 396.705 267.486 382.497C269.042 375.344 270.564 368.18 272.068 361.015C272.81 357.481 273.552 353.947 274.295 350.412C274.61 348.914 275.162 347.292 275.123 345.748C275.094 344.553 274.455 343.649 273.324 343.25Z" fill="#263238"/>
<path d="M305.403 433.73C301.892 432.986 298.404 432.173 294.864 431.564C291.317 430.953 287.759 430.405 284.199 429.878C277.125 428.832 270.03 427.903 262.925 427.087C258.912 426.627 254.886 426.26 250.878 425.75C250.77 425.736 250.77 425.907 250.877 425.92C258.078 426.835 265.248 428.1 272.418 429.233C279.436 430.343 286.448 431.493 293.478 432.531C297.432 433.114 301.399 433.533 305.363 434.029C305.531 434.052 305.57 433.766 305.403 433.73Z" fill="#263238"/>
<path d="M254.765 281.785C254.765 281.785 251.594 282.501 245.197 283.142C240.147 283.642 233.099 284.098 223.999 284.087H223.26C222.12 284.087 220.936 284.076 219.731 284.054C211.314 283.913 201.355 283.403 189.833 282.241C189.833 282.241 203.169 233.099 216.788 217.102C217.092 216.733 217.407 216.386 217.721 216.06C217.787 215.984 217.841 215.93 217.906 215.864C219.079 214.637 220.306 213.714 221.544 213.052C221.783 212.921 222.022 212.802 222.272 212.693C227.517 210.282 233.056 212.281 237.052 215.702C238.323 216.788 252.68 235.467 253.95 242.591C255.047 248.879 250.801 255.634 250.801 255.634L254.765 281.785Z" fill="#2FBFBF"/>
<path d="M223.999 284.087H223.26C222.12 284.087 220.936 284.076 219.731 284.054C211.314 283.913 201.355 283.403 189.833 282.241C189.833 282.241 203.169 233.099 216.788 217.103C217.092 216.733 217.407 216.386 217.721 216.06C217.787 215.984 217.841 215.93 217.906 215.864C219.079 214.637 220.306 213.714 221.544 213.052C221.783 212.921 222.022 212.802 222.272 212.693L223.999 284.087Z" fill="#263238"/>
<path d="M212.942 221.642C200.852 240.042 186.731 271.486 195.443 276.896C209.767 285.792 248.325 286.92 257.126 286.819C260.924 286.776 265.185 261.355 262.274 258.525C259.361 255.694 219.151 258.729 218.547 256.316C218.205 254.948 221.393 242.316 223.336 226.974C225.576 209.284 216.351 216.455 212.942 221.642Z" fill="#EB9481"/>
<path d="M255.467 257.374C255.467 257.374 266.91 255.776 274.443 255.082C278.646 254.694 285.909 254.674 289.127 255.802C293.939 257.488 312.988 267.618 310.632 272.288C308.499 276.517 293.238 265.738 293.238 265.738C293.238 265.738 309.599 275.253 306.094 279.873C302.59 284.493 286.968 270.021 286.968 270.021C286.968 270.021 303.558 280.175 299.191 284.367C295.89 287.535 281.001 275.224 281.001 275.224C281.001 275.224 295.201 284.051 291.947 287.454C288.351 291.216 273.895 280.715 273.895 280.715C264.168 287.976 256.566 287.453 251.202 286.438C249.904 286.194 255.467 257.374 255.467 257.374Z" fill="#EB9481"/>
<path d="M287.79 262.083C289.752 263.131 291.745 264.179 293.608 265.399C295.47 266.617 297.291 267.903 299.032 269.29C303.301 272.691 305.442 275.49 305.291 275.331C301.718 271.585 295.118 267.118 293.256 265.898C291.398 264.682 289.599 263.372 287.741 262.154C287.693 262.122 287.743 262.058 287.79 262.083Z" fill="#263238"/>
<path d="M283.266 268.728C285.713 270.175 288.196 271.522 290.581 273.078C292.954 274.625 296.206 276.908 298.466 278.615C298.64 278.747 298.524 279.052 298.344 278.927C296.017 277.311 292.593 275.136 290.249 273.548C287.911 271.966 285.619 270.28 283.226 268.784C283.188 268.76 283.228 268.707 283.266 268.728Z" fill="#263238"/>
<path d="M278.357 273.733C282.211 275.753 285.688 278.481 289.034 281.239C289.2 281.377 289.028 281.423 288.849 281.292C285.347 278.731 282.618 276.695 278.285 273.866C278.218 273.823 278.276 273.69 278.357 273.733Z" fill="#263238"/>
<path d="M255.389 257.227C260.612 256.5 274.373 254.436 279.637 254.148C284.28 253.895 288.231 254.386 292.442 256.435C301.471 260.829 307.675 266.574 309.256 268.317C310.214 269.374 311.634 271.07 310.732 272.502C309.635 274.245 304.614 273.349 298.926 269.421C298.722 269.28 298.823 269.161 299.03 269.289C306.927 274.128 309.682 273.086 310.295 271.999C310.691 271.295 310.081 270.249 309.537 269.459C308.749 268.316 307.615 267.322 306.566 266.432C302.942 263.356 298.698 260.656 294.523 258.395C289.722 255.793 284.833 254.613 279.371 254.882C273.975 255.148 260.795 257.238 255.396 257.428C255.282 257.433 255.277 257.243 255.389 257.227Z" fill="#263238"/>
<path d="M306.639 277.466C306.155 276.076 304.956 274.913 303.989 273.842C302.794 272.521 301.502 271.236 300.063 270.179C299.999 270.133 299.913 270.214 299.975 270.272C301.198 271.415 302.407 272.55 303.488 273.833C304.075 274.53 304.622 275.249 305.123 276.01C305.605 276.738 306.164 277.582 306.088 278.495C305.941 280.242 303.781 280.486 302.444 280.196C301.575 280.007 300.732 279.696 299.913 279.354C299.066 279 297.466 278.061 296.707 277.539C296.618 277.478 296.419 277.533 296.509 277.599C298.651 279.162 302.751 282.453 305.509 280.682C306.612 279.973 307.074 278.712 306.639 277.466Z" fill="#263238"/>
<path d="M196.46 241.685L221.843 241.416C221.843 241.416 223.38 230.128 224.407 222.558C225.586 213.873 224.926 208.387 214.723 217.955C207.649 224.588 196.46 241.685 196.46 241.685Z" fill="#2FBFBF"/>
<path d="M226.416 211.617C221.452 213.046 221.951 218.635 223.8 222.562C225.648 226.489 229.305 231.049 231.968 230.913C234.632 230.777 235.129 224.096 235.129 224.096C235.129 224.096 238.921 228.249 240.907 226.805C242.894 225.36 238.91 217.725 236.077 215.352C231.965 211.908 229.053 210.858 226.416 211.617Z" fill="white"/>
<path d="M223.69 214.777C223.914 215.973 229.217 223.901 234.634 223.889C236.399 223.881 236.79 214.249 236.79 214.249L236.982 213.546L239.653 203.683L228.286 195.653L226.64 194.583C226.64 194.583 226.087 197.33 225.432 200.756C225.401 200.914 225.369 201.074 225.339 201.243C225.296 201.437 225.255 201.618 225.224 201.799C225.119 202.31 225.015 202.832 224.922 203.355C224.85 203.751 224.777 204.138 224.717 204.557C224.645 204.976 224.584 205.384 224.511 205.805C223.891 209.955 223.602 214.269 223.69 214.777Z" fill="#EB9481"/>
<path d="M225.433 200.757C227.933 208.813 234.123 212.327 236.982 213.546L239.654 203.683L228.287 195.653L226.64 194.583C226.64 194.583 226.086 197.329 225.433 200.757Z" fill="#263238"/>
<path d="M253.926 188.367C254.756 206.28 244.12 208.801 240.257 208.976C236.75 209.134 224.789 209.229 222.112 191.498C219.435 173.765 227.502 167.716 235.503 166.929C243.505 166.141 253.096 170.452 253.926 188.367Z" fill="#EB9481"/>
<path d="M251.255 185.391C250.833 185.352 250.45 185.247 250.038 185.165C249.571 185.074 249.191 185.048 248.84 184.698C248.652 184.511 248.656 184.12 248.821 183.92C249.207 183.454 249.805 183.425 250.371 183.512C250.985 183.608 251.434 183.838 251.849 184.299C252.252 184.745 251.811 185.442 251.255 185.391Z" fill="#263238"/>
<path d="M239.78 185.751C240.199 185.691 240.577 185.567 240.985 185.466C241.447 185.352 241.826 185.308 242.159 184.942C242.339 184.745 242.315 184.354 242.139 184.163C241.732 183.717 241.132 183.717 240.572 183.832C239.962 183.957 239.526 184.209 239.134 184.689C238.753 185.152 239.226 185.828 239.78 185.751Z" fill="#263238"/>
<path d="M242.024 189.982C242.012 189.936 241.932 190.044 241.935 190.094C242.032 191.311 241.939 192.723 240.854 193.18C240.82 193.194 240.827 193.255 240.867 193.248C242.205 192.995 242.311 191.12 242.024 189.982Z" fill="#263238"/>
<path d="M240.875 188.76C238.906 188.705 238.939 192.646 240.764 192.698C242.559 192.748 242.524 188.807 240.875 188.76Z" fill="#263238"/>
<path d="M240.102 188.975C239.76 189.201 239.426 189.597 239.012 189.642C238.532 189.694 238.166 189.284 237.849 188.889C237.816 188.848 237.782 188.883 237.781 188.935C237.776 189.69 238.073 190.463 238.885 190.568C239.624 190.665 240.149 189.992 240.331 189.23C240.364 189.091 240.24 188.884 240.102 188.975Z" fill="#263238"/>
<path d="M248.693 189.667C248.703 189.62 248.789 189.724 248.788 189.774C248.75 190.995 248.913 192.4 250.017 192.804C250.052 192.817 250.049 192.878 250.007 192.873C248.659 192.685 248.462 190.817 248.693 189.667Z" fill="#263238"/>
<path d="M249.782 188.391C251.746 188.24 251.903 192.179 250.084 192.319C248.294 192.456 248.136 188.517 249.782 188.391Z" fill="#263238"/>
<path d="M250.614 188.617C250.933 188.813 251.257 189.18 251.629 189.19C252.062 189.201 252.362 188.762 252.622 188.343C252.649 188.3 252.682 188.331 252.685 188.383C252.736 189.136 252.518 189.93 251.801 190.102C251.146 190.261 250.636 189.634 250.427 188.891C250.387 188.753 250.485 188.537 250.614 188.617Z" fill="#263238"/>
<path d="M242.038 199.398C242.32 199.694 242.597 200.098 243.039 200.151C243.462 200.202 243.967 200.03 244.361 199.893C244.4 199.88 244.437 199.921 244.412 199.957C244.078 200.414 243.401 200.682 242.839 200.563C242.29 200.445 242.034 199.959 241.919 199.449C241.903 199.378 241.997 199.355 242.038 199.398Z" fill="#263238"/>
<path d="M246.869 195.489C246.869 195.489 247.158 197.307 247.177 198.167C247.178 198.247 244.055 198.957 242.644 196.868C242.586 196.782 242.689 196.694 242.77 196.746C243.921 197.556 245.177 197.746 246.525 197.74C246.58 197.5 245.926 194.643 246.062 194.63C246.532 194.58 247.464 194.881 248.025 195.033C247.533 191.229 246.434 187.533 246 183.737C245.987 183.602 246.182 183.557 246.224 183.678C247.649 187.469 248.312 191.835 248.921 195.751C249 196.238 247.216 195.629 246.869 195.489Z" fill="#263238"/>
<path d="M247.821 190.417C247.74 187.608 249.187 185.279 251.045 185.226C252.903 185.173 254.481 187.415 254.561 190.224C254.642 193.033 253.194 195.361 251.336 195.414C249.477 195.468 247.901 193.226 247.821 190.417ZM248.504 190.398C248.573 192.83 249.834 194.774 251.316 194.732C252.799 194.689 253.948 192.676 253.878 190.244C253.809 187.812 252.547 185.867 251.064 185.909C249.582 185.951 248.434 187.965 248.504 190.398Z" fill="#37474F"/>
<path d="M235.013 190.783C234.933 187.974 237.001 185.628 239.625 185.553C242.248 185.478 244.447 187.702 244.527 190.512C244.608 193.321 242.539 195.667 239.916 195.742C237.293 195.816 235.092 193.591 235.013 190.783ZM235.695 190.763C235.765 193.196 237.649 195.123 239.896 195.059C242.142 194.995 243.913 192.964 243.843 190.531C243.774 188.098 241.89 186.172 239.644 186.236C237.397 186.299 235.626 188.331 235.695 190.763Z" fill="#37474F"/>
<path d="M244.285 190.06C246.81 189.092 247.986 189.893 247.996 189.901L248.402 189.352C248.346 189.308 246.953 188.305 244.041 189.421L244.285 190.06Z" fill="#37474F"/>
<path d="M235.343 190.328L235.45 189.654C235.004 189.584 224.554 187.962 223.419 187.931C222.223 187.882 219.493 189.534 219.185 189.72L219.538 190.304C220.312 189.835 222.474 188.639 223.349 188.614C223.367 188.613 223.383 188.614 223.4 188.614C224.274 188.637 231.593 189.746 235.343 190.328Z" fill="#37474F"/>
<path d="M223.466 192.096C227.869 192.089 229.599 178.615 229.793 176.958C229.725 178.007 229.386 183.568 229.803 183.805C229.909 183.86 230.405 183.774 231.192 183.59L231.203 183.588C231.226 182.959 231.299 182.279 231.429 181.603C231.474 181.296 231.523 182.277 231.65 183.484C231.902 183.424 232.174 183.351 232.47 183.285C232.478 182.085 232.6 180.605 233.03 179.068C233.177 178.548 233.238 180.918 233.672 183.001C236.734 182.284 241.152 181.356 245.252 181.357C246.35 181.352 247.296 181.398 248.132 181.465C248.193 179.823 248.063 178.066 248.17 178.447C248.498 179.533 248.669 180.613 248.755 181.523C249.208 181.564 249.627 181.61 250.001 181.66C250.193 179.342 249.213 175.603 249.566 176.182C250.914 178.426 251.428 180.746 251.615 181.97C253.189 182.33 253.616 182.654 253.672 182.245C253.773 181.507 253.085 174.983 248.187 170.053C242.863 164.694 231.943 163.025 225.495 170.792C225.495 170.792 220.294 173.944 219.312 179.27C218.331 184.584 220.922 192.097 223.466 192.096Z" fill="#263238"/>
<path d="M225.023 191.399C225.023 191.399 221.337 185.649 218.743 186.941C216.15 188.233 218.764 196.459 221.698 197.688C224.633 198.917 225.824 196.223 225.824 196.223L225.023 191.399Z" fill="#EB9481"/>
<path d="M219.552 189.28C219.504 189.274 219.492 189.341 219.532 189.36C221.587 190.29 222.609 192.271 223.298 194.311C222.708 193.512 221.879 193.055 220.814 193.752C220.758 193.789 220.806 193.876 220.866 193.866C221.729 193.718 222.34 193.89 222.891 194.599C223.281 195.101 223.536 195.726 223.807 196.298C223.897 196.489 224.238 196.402 224.176 196.184C224.171 196.168 224.165 196.151 224.161 196.135C224.321 193.474 222.401 189.664 219.552 189.28Z" fill="#263238"/>
<path d="M260.44 279.931H197.197V282.768H260.44V279.931Z" fill="#455A64"/>
<path d="M260.44 279.931H228.609V282.768H260.44V279.931Z" fill="#263238"/>
<path d="M229.348 282.765H167.713L159.004 240.904H220.64L229.348 282.765Z" fill="#37474F"/>
<path d="M198.953 262.77C199.191 265.038 197.546 266.878 195.277 266.878C193.009 266.878 190.976 265.038 190.738 262.77C190.499 260.501 192.145 258.661 194.414 258.661C196.683 258.661 198.716 260.501 198.953 262.77Z" fill="white"/>
<path d="M349.513 282.767H298.146V278.778L349.513 277.118V282.767Z" fill="#37474F"/>
<path d="M402.184 265.274H312.21L326.519 198.29H416.493L402.184 265.274Z" fill="#455A64"/>
<path d="M405.512 265.274H315.538L329.846 198.29H419.821L405.512 265.274Z" fill="#37474F"/>
<path d="M356.984 241.257H354.875L358.078 226.23H360.188L356.984 241.257Z" fill="#263238"/>
<path d="M361.147 241.257H359.037L362.241 226.23H364.351L361.147 241.257Z" fill="#263238"/>
<path d="M365.311 241.257H363.201L366.405 226.23H368.514L365.311 241.257Z" fill="#263238"/>
<path d="M369.475 241.257H367.365L370.568 226.23H372.678L369.475 241.257Z" fill="#263238"/>
<path d="M373.638 241.257H371.529L374.732 226.23H376.842L373.638 241.257Z" fill="#263238"/>
<path d="M377.801 241.257H375.691L378.895 226.23H381.005L377.801 241.257Z" fill="#263238"/>
<path d="M381.966 241.257H379.855L383.059 226.23H385.168L381.966 241.257Z" fill="#263238"/>
<path d="M380.066 282.767H335.814V279.331L380.066 277.9V282.767Z" fill="#455A64"/>
<path d="M392.097 282.763H368.337L354.029 245.229H377.788L392.097 282.763Z" fill="#455A64"/>
<path d="M396.008 282.763H372.249L357.939 245.229H381.699L396.008 282.763Z" fill="#263238"/>
<path d="M133.434 265.274H161.204L146.895 198.29H119.126L133.434 265.274Z" fill="#455A64"/>
<path d="M130.107 265.274H157.876L143.568 198.29H115.798L130.107 265.274Z" fill="#37474F"/>
<path d="M133.89 241.257H134.284L131.081 226.23H130.687L133.89 241.257Z" fill="#263238"/>
<path d="M134.73 241.257H135.124L131.922 226.23H131.527L134.73 241.257Z" fill="#263238"/>
<path d="M135.571 241.257H135.965L132.762 226.23H132.367L135.571 241.257Z" fill="#263238"/>
<path d="M136.41 241.257H136.805L133.601 226.23H133.207L136.41 241.257Z" fill="#263238"/>
<path d="M137.251 241.257H137.645L134.442 226.23H134.047L137.251 241.257Z" fill="#263238"/>
<path d="M138.09 241.257H138.486L135.282 226.23H134.888L138.09 241.257Z" fill="#263238"/>
<path d="M138.93 241.257H139.324L136.122 226.23H135.727L138.93 241.257Z" fill="#263238"/>
<path d="M139.77 241.257H140.165L136.962 226.23H136.567L139.77 241.257Z" fill="#263238"/>
<path d="M129.574 282.767H162.79V279.331L129.574 277.9V282.767Z" fill="#455A64"/>
<path d="M117.542 282.763H130.264L144.574 245.229H131.851L117.542 282.763Z" fill="#455A64"/>
<path d="M117.542 282.763H126.354L140.663 245.229H131.851L117.542 282.763Z" fill="#263238"/>
<path d="M293.177 282.802C293.177 282.802 262.183 282.802 259.291 282.802C256.398 282.802 260.584 274.568 271.138 271.409C281.691 268.25 296.506 279.714 293.177 282.802Z" fill="#37474F"/>
<path d="M279.88 282.802C279.772 281.851 279.893 280.891 280.125 279.964C280.355 279.034 280.742 278.142 281.231 277.306C281.726 276.474 282.371 275.721 283.121 275.108C283.852 274.468 284.756 274.048 285.662 273.792C284.963 274.451 284.276 275.019 283.71 275.717C283.14 276.398 282.598 277.094 282.16 277.866C281.236 279.382 280.552 281.034 279.88 282.802Z" fill="#263238"/>
<path d="M283.895 274.968C284.95 275.164 285.956 275.525 286.928 275.958C287.903 276.388 288.828 276.929 289.712 277.541C290.586 278.163 291.407 278.896 292.072 279.772C292.727 280.63 293.266 281.708 293.177 282.802C292.808 281.79 292.146 281.031 291.435 280.33C290.707 279.643 289.926 279.001 289.082 278.424C287.423 277.231 285.651 276.177 283.895 274.968Z" fill="#263238"/>
<path d="M133.812 416.702H105.047V421.759H133.812V416.702Z" fill="#455A64"/>
<path d="M149.412 490.709H146.306L120.97 372.433L119.525 365.689L114.975 344.458L113.281 336.541L106.906 306.828L104.68 296.424H115.746L117.549 306.828L118.733 313.659L119.525 318.209L124.065 344.458L125.531 352.907L149.412 490.709Z" fill="#455A64"/>
<path d="M115.746 296.424L117.549 306.828H106.906L104.68 296.424H115.746Z" fill="#263238"/>
<path d="M125.531 352.907L120.97 372.433L119.526 365.689L114.975 344.458L113.281 336.541L118.733 313.659L119.526 318.209L124.065 344.458L125.531 352.907Z" fill="#263238"/>
<path d="M134.36 296.424L132.134 306.828L124.065 344.458L119.525 365.689L92.7338 490.709H89.6387L114.975 344.458L119.525 318.209L121.491 306.828L123.294 296.424H134.36Z" fill="#455A64"/>
<path d="M134.36 296.424L132.134 306.828H121.491L123.294 296.424H134.36Z" fill="#263238"/>
<path d="M438.321 296.42L396.699 490.712H393.594L427.254 296.42H438.321Z" fill="#455A64"/>
<path d="M408.641 296.42L450.262 490.712H453.368L419.707 296.42H408.641Z" fill="#455A64"/>
<path d="M437.773 416.701H409.008V421.759H437.773V416.701Z" fill="#455A64"/>
<path d="M455.326 282.767H87.6729V296.419H455.326V282.767Z" fill="#455A64"/>
<path d="M84.9927 403.614C77.0454 387.276 63.1359 378.887 47.4617 383.523C31.7863 388.159 29.358 410.016 41.0586 415.535C52.7602 421.054 64.4608 404.938 70.6423 401.627C76.8238 398.316 84.9927 403.614 84.9927 403.614Z" fill="#FDB12E"/>
<path d="M92.6861 447.102C92.6448 445.132 92.5699 443.164 92.4993 441.195C92.3603 437.263 92.2278 433.33 92.0811 429.399C91.814 422.209 91.0397 415.146 88.0608 408.517C85.3881 402.572 81.0582 397.365 75.4523 393.987C73.3639 392.728 71.1322 391.765 68.8245 391.127C66.8859 388.956 63.8549 387.55 61.0889 386.878C57.4649 385.997 53.7388 386.189 50.0627 386.601C49.9302 386.616 49.9357 386.825 50.0681 386.808C53.5488 386.383 57.1174 386.593 60.5003 387.551C61.9501 387.962 63.3662 388.487 64.7031 389.186C65.5675 389.637 66.3581 390.169 67.1336 390.727C63.9994 390.096 60.7566 390.076 57.5539 390.819C56.4147 391.083 55.3103 391.472 54.2297 391.916C53.3902 391.697 52.4519 391.676 51.6179 391.694C50.4754 391.719 49.3318 391.902 48.223 392.177C45.9392 392.748 43.8052 393.829 41.7744 394.995C41.6582 395.061 41.7668 395.236 41.883 395.172C43.8595 394.083 45.9761 393.298 48.1763 392.8C49.2439 392.558 50.3179 392.4 51.4104 392.325C52.0121 392.284 52.6137 392.313 53.2132 392.339C48.804 394.419 45.0954 397.958 43.0754 402.439C43.0211 402.561 43.2035 402.662 43.2568 402.539C45.6069 397.226 50.6209 393.599 56.1726 392.185C56.519 392.097 56.8719 392.05 57.2205 391.982C57.0978 392.489 57.1185 393.071 57.0533 393.563C56.948 394.358 56.8155 395.149 56.6547 395.935C56.3257 397.55 55.9043 399.155 55.3787 400.717C54.8455 402.301 54.2199 403.855 53.4793 405.355C52.7245 406.884 51.9317 408.516 50.8294 409.829C50.7339 409.943 50.9141 410.078 50.9956 409.951C51.9361 408.475 53.0329 407.116 53.892 405.583C54.713 404.118 55.4308 402.595 56.0173 401.022C56.6124 399.427 57.088 397.796 57.4138 396.125C57.5854 395.245 57.7234 394.358 57.8265 393.468C57.8863 392.952 58.0079 392.371 57.9254 391.846C59.764 391.556 61.6362 391.539 63.4922 391.732C62.7972 395.628 62.0489 399.69 59.866 403.075C59.7944 403.187 59.9844 403.295 60.0474 403.175C61.0226 401.341 62.0185 399.557 62.7407 397.602C63.4227 395.754 63.9505 393.773 64.0841 391.796C67.316 392.217 70.4763 393.303 73.2868 394.883C78.7136 397.934 82.8295 402.721 85.5391 408.286C88.4821 414.331 89.6637 420.835 90.0807 427.499C90.6031 435.849 90.7117 444.25 91.5457 452.576C91.6 453.121 92.4623 453.303 92.5677 452.689C92.887 450.85 92.7251 448.962 92.6861 447.102Z" fill="#263238"/>
<path d="M74.3173 392.677C73.8764 392.028 73.1119 391.508 72.5113 391.01C71.8608 390.47 71.1929 389.95 70.4935 389.476C69.1013 388.531 67.6026 387.823 65.9779 387.382C65.8487 387.347 65.7966 387.555 65.928 387.583C67.5624 387.936 69.047 388.791 70.3849 389.773C71.0496 390.261 71.687 390.784 72.3082 391.325C72.8849 391.828 73.4572 392.508 74.1316 392.874C74.25 392.939 74.3977 392.797 74.3173 392.677Z" fill="#263238"/>
<path d="M48.9504 398.599C47.6732 400.151 46.3765 401.719 45.3047 403.422C44.2284 405.132 43.2999 406.901 42.5929 408.798C42.5723 408.854 42.6613 408.886 42.6885 408.836C44.6161 405.369 46.5514 401.798 49.1002 398.742C49.186 398.64 49.0351 398.496 48.9504 398.599Z" fill="#263238"/>
<path d="M66.0495 396.982C65.8779 398.002 65.5825 398.997 65.1514 399.938C64.7322 400.85 64.1924 401.721 63.6386 402.556C63.6027 402.611 63.6864 402.669 63.7298 402.624C65.1416 401.12 65.9311 399.05 66.2515 397.032C66.2721 396.902 66.0723 396.849 66.0495 396.982Z" fill="#263238"/>
<path d="M91.5771 404.017C91.5771 404.017 102.831 389.873 124.552 394.886C145.198 399.651 154.727 437.509 133.864 442.039C113.001 446.569 116.68 411.534 109.077 405.59C103.499 401.227 95.4759 402.164 91.5771 404.017Z" fill="#FDB12E"/>
<path d="M141.33 415.561C139.905 414.335 138.431 413.157 136.854 412.13C135.379 411.17 133.775 410.27 132.082 409.749C131.23 408.471 130.302 407.24 129.25 406.106C127.312 404.017 125.096 402.267 122.686 400.878C122.902 400.865 123.117 400.843 123.334 400.835C124.488 400.797 125.633 400.789 126.787 400.87C129.12 401.031 131.359 401.572 133.49 402.539C133.611 402.594 133.702 402.403 133.579 402.351C131.438 401.441 129.178 400.732 126.885 400.333C125.772 400.14 124.624 400.031 123.493 400.042C122.884 400.048 122.274 400.089 121.668 400.149C121.555 400.16 121.437 400.166 121.319 400.176C119.333 399.171 117.232 398.402 115.058 397.873C115.26 397.819 115.459 397.756 115.663 397.71C116.724 397.466 117.801 397.308 118.883 397.181C121.062 396.924 123.211 396.976 125.383 397.281C125.515 397.299 125.552 397.093 125.42 397.076C123.252 396.809 121.032 396.726 118.851 396.81C117.062 396.88 115.162 397.081 113.386 397.518C112.085 397.282 110.764 397.123 109.425 397.067C101.851 396.746 93.5956 399.579 88.9334 405.801C84.256 412.046 83.3568 420.345 82.5325 427.862C81.3857 438.326 80.8601 448.936 81.7017 459.434C81.7517 460.056 82.6227 459.943 82.6422 459.352C82.9267 450.426 83.2417 441.496 84.0953 432.601C84.4906 428.482 84.9304 424.347 85.6146 420.266C86.1999 416.777 87.034 413.295 88.6087 410.107C90.2507 406.783 92.7409 404.105 95.9392 402.225C99.0918 400.372 102.694 399.346 106.325 399.03C109.621 398.744 112.916 399.087 116.069 399.942C115.93 400.568 115.96 401.222 116.014 401.865C116.082 402.671 116.245 403.467 116.491 404.237C116.723 404.966 117.037 405.671 117.399 406.344C117.8 407.09 118.306 407.755 118.755 408.47C118.826 408.583 119.008 408.454 118.924 408.349C117.988 407.172 117.509 405.525 117.24 404.067C117.105 403.337 117.018 402.594 116.979 401.853C116.95 401.293 116.999 400.73 116.974 400.173C120.398 401.224 123.627 402.918 126.457 405.179C126.986 405.601 127.495 406.05 127.992 406.509C127.251 407.118 126.651 408.034 126.152 408.772C125.41 409.865 124.757 411.004 124.22 412.212C123.159 414.599 122.596 417.195 122.211 419.768C122.191 419.901 122.396 419.938 122.415 419.805C122.767 417.262 123.7 414.91 124.887 412.644C125.461 411.548 126.101 410.475 126.811 409.463C127.178 408.941 127.557 408.424 127.952 407.923C128.165 407.654 128.398 407.38 128.601 407.09C131.144 409.578 133.248 412.536 134.76 415.765C134.747 415.773 134.732 415.773 134.72 415.784C133.647 416.783 132.886 418.173 132.175 419.441C131.394 420.835 130.718 422.301 130.141 423.789C129.025 426.661 128.291 429.661 127.548 432.646C127.516 432.775 127.726 432.816 127.752 432.683C128.352 429.638 129.505 426.755 130.833 423.96C131.481 422.598 132.167 421.259 132.889 419.936C133.569 418.691 134.4 417.458 134.93 416.138C136.362 419.311 137.237 422.729 137.408 426.2C137.415 426.333 137.625 426.315 137.614 426.181C137.182 420.769 135.574 415.382 132.738 410.74C134.066 411.306 135.4 411.853 136.677 412.541C138.304 413.419 139.834 414.46 141.194 415.714C141.294 415.811 141.431 415.649 141.33 415.561Z" fill="#263238"/>
<path d="M125.399 416.364C124.747 418.509 123.927 420.591 123.34 422.757C122.775 424.839 122.383 426.982 122.38 429.143C122.38 429.201 122.474 429.205 122.483 429.147C123.121 424.854 124.062 420.496 125.596 416.426C125.648 416.287 125.443 416.218 125.399 416.364Z" fill="#263238"/>
<path d="M139.16 411.043C138.296 410.228 137.35 409.521 136.284 408.989C135.224 408.459 134.083 408.151 132.955 407.81C132.829 407.772 132.785 407.985 132.918 408.015C134.05 408.268 135.102 408.793 136.122 409.334C137.141 409.874 138.144 410.466 139.075 411.147C139.143 411.198 139.223 411.103 139.16 411.043Z" fill="#263238"/>
<path d="M102.274 385.126C102.274 385.126 104.351 359.716 123.243 351.479C139.018 344.602 148.049 362.329 136.897 373.179C127.875 381.956 113.408 377.995 102.274 385.126Z" fill="#FDB12E"/>
<path d="M133.402 356.4C130.542 357.621 127.706 358.831 125.001 360.378C122.734 361.675 120.567 363.139 118.477 364.708C118.791 364.066 119.064 363.393 119.38 362.765C119.874 361.785 120.402 360.823 120.985 359.893C122.185 357.979 123.509 356.188 125.145 354.626C125.242 354.533 125.089 354.387 124.995 354.482C123.435 356.08 121.898 357.749 120.616 359.581C119.968 360.505 119.36 361.464 118.821 362.456C118.329 363.359 117.77 364.363 117.551 365.381C117.484 365.435 117.41 365.48 117.342 365.533C114.028 368.145 111.035 371.136 108.32 374.362C108.373 374.112 108.425 373.863 108.49 373.634C108.845 372.394 109.227 371.165 109.635 369.941C110.493 367.369 111.551 364.8 113.048 362.531C113.121 362.42 112.937 362.316 112.867 362.431C111.437 364.786 110.007 367.12 108.913 369.658C108.389 370.873 107.95 372.136 107.608 373.415C107.404 374.176 107.075 375.096 106.993 375.967C106.17 377.008 105.361 378.061 104.597 379.147C96.488 390.692 92.4166 404.658 91.4403 418.63C91.1492 422.798 91.0895 426.973 91.2296 431.148C91.3697 435.326 91.5217 439.602 92.3362 443.711C92.3884 443.974 92.7999 443.895 92.7934 443.639C92.6989 439.968 92.3188 436.311 92.2483 432.637C92.1777 428.959 92.3058 425.272 92.6034 421.606C93.1952 414.3 94.581 406.994 96.7226 399.983C98.912 392.816 102.149 385.914 106.329 379.657C107.125 379.498 107.914 379.283 108.697 379.081C109.641 378.838 110.584 378.597 111.523 378.334C113.326 377.829 115.117 377.257 116.791 376.403C116.908 376.343 116.798 376.159 116.682 376.226C115.034 377.191 113.202 377.698 111.34 378.069C109.862 378.363 108.326 378.556 106.845 378.896C108.215 376.899 109.674 374.968 111.238 373.122C114.826 373.472 118.484 373.155 121.986 372.32C123.851 371.875 125.698 371.296 127.487 370.607C129.38 369.879 131.17 368.941 133.037 368.162C133.177 368.103 133.081 367.897 132.953 367.974C129.748 369.919 125.722 370.917 122.058 371.54C118.677 372.115 115.284 372.324 111.867 372.382C113.209 370.843 114.595 369.342 116.075 367.933C121.037 363.208 126.932 358.864 133.465 356.602C133.59 356.554 133.524 356.349 133.402 356.4Z" fill="#263238"/>
<path d="M118.03 356.478C117.186 357.55 116.396 358.684 115.714 359.866C114.991 361.119 114.465 362.423 114.047 363.806C114.034 363.85 114.102 363.877 114.124 363.836C114.754 362.589 115.286 361.297 115.924 360.056C116.556 358.827 117.298 357.685 118.18 356.621C118.265 356.518 118.111 356.374 118.03 356.478Z" fill="#263238"/>
<path d="M135.596 364.938C134.371 365.649 133.066 366.121 131.723 366.554C130.429 366.972 129.113 367.347 127.779 367.613C127.716 367.625 127.733 367.733 127.796 367.725C129.187 367.561 130.557 367.293 131.881 366.83C133.197 366.371 134.458 365.73 135.705 365.114C135.823 365.056 135.712 364.87 135.596 364.938Z" fill="#263238"/>
<path d="M87.5879 380.553C87.4695 381.65 84.7296 371.327 68.7567 362.163C54.251 353.839 36.9369 332.191 51.1602 318.515C62.6403 307.476 92.8865 331.541 87.5879 380.553Z" fill="#FDB12E"/>
<path d="M98.5825 439.738C98.3447 428.996 97.5052 418.267 96.0488 407.62C94.7087 397.83 92.6008 388.195 89.2994 378.873C88.1102 375.514 86.7538 372.208 85.2801 368.955C85.4332 367.715 85.2714 366.351 85.2138 365.154C85.1356 363.528 84.989 361.904 84.8392 360.283C84.6893 358.661 84.5253 357.039 84.3309 355.422C84.1387 353.817 83.7955 352.191 83.7282 350.577C83.7217 350.428 83.4903 350.46 83.5251 350.61C83.915 352.267 83.9671 354.058 84.0985 355.752C84.2201 357.319 84.3103 358.886 84.3581 360.457C84.4058 362.028 84.3982 363.601 84.3993 365.173C84.3993 365.74 84.3689 366.343 84.3472 366.948C82.8453 363.773 81.2336 360.649 79.4928 357.605C80.5744 350.981 79.1702 344.059 77.8171 337.584C77.7899 337.454 77.5912 337.515 77.6183 337.644C78.3232 341.017 78.5936 344.467 78.6718 347.908C78.7337 350.627 78.6055 353.347 78.5957 356.066C78.2113 355.414 77.8312 354.762 77.437 354.118C75.3671 350.735 73.1538 347.42 70.8026 344.204C71.0567 342.657 70.8743 341.017 70.6484 339.487C70.391 337.748 69.9968 336.012 69.4907 334.327C68.9814 332.634 68.396 330.975 67.7227 329.341C67.0309 327.66 66.1089 326.072 65.4421 324.387C65.3867 324.247 65.1771 324.343 65.2542 324.472C66.16 325.987 66.7149 327.808 67.2536 329.483C67.777 331.109 68.2244 332.777 68.56 334.452C68.8978 336.135 69.1736 337.819 69.4104 339.518C69.5667 340.642 69.6656 341.807 69.86 342.943C66.4239 338.354 62.7054 333.976 58.6752 329.927C58.5797 329.831 58.445 329.978 58.5319 330.077C64.595 336.965 70.0826 344.269 74.7719 352.168C74.9468 352.463 75.1129 352.762 75.2856 353.058C74.4059 352.506 73.396 352.068 72.5684 351.608C71.0209 350.748 69.469 349.892 67.9106 349.05C66.3978 348.234 64.8893 347.407 63.3852 346.574C62.6109 346.145 61.8474 345.698 61.059 345.294C60.1652 344.837 59.1574 344.398 58.3516 343.793C58.23 343.702 58.0997 343.887 58.23 343.959C59.7667 344.804 61.1263 346.061 62.6109 347.008C64.1074 347.962 65.6213 348.878 67.1721 349.742C70.012 351.327 73.0962 352.466 75.8916 354.103C77.8323 357.497 79.6166 360.981 81.2673 364.527C79.5699 363.439 77.8388 362.407 76.0784 361.421C74.9468 360.786 73.8119 360.162 72.6629 359.558C71.5541 358.975 70.404 358.436 69.4462 357.615C69.3452 357.528 69.2073 357.671 69.3028 357.764C71.1099 359.535 73.27 360.766 75.4398 362.035C77.4913 363.233 79.5655 364.391 81.6995 365.437C83.4078 369.178 84.9543 372.993 86.3226 376.868C93.045 395.906 95.5156 416.114 96.6961 436.186C97.048 442.17 97.2293 448.15 97.3043 454.144C97.3781 460.13 97.0632 466.105 97.074 472.087C97.074 472.264 97.3662 472.305 97.3911 472.121C98.109 466.815 98.235 461.419 98.4674 456.075C98.7009 450.642 98.703 445.178 98.5825 439.738Z" fill="#263238"/>
<path d="M69.5623 353.555C66.628 352.351 63.8315 350.725 61.0742 349.165C58.2994 347.596 55.6062 345.906 53.015 344.049C52.9726 344.019 52.9183 344.09 52.9607 344.124C55.4161 346.091 57.9943 347.929 60.6995 349.536C63.509 351.205 66.4759 352.434 69.4624 353.737C69.5851 353.789 69.6851 353.605 69.5623 353.555Z" fill="#263238"/>
<path d="M74.1896 332.035C73.9529 331.106 73.6596 330.194 73.3469 329.288C73.3816 329.266 73.4066 329.232 73.387 329.183C73.1861 328.668 72.9722 328.158 72.7637 327.646C72.7387 327.577 72.7126 327.51 72.6887 327.462C72.6496 327.364 72.6084 327.266 72.5693 327.168C72.5563 327.137 72.5063 327.15 72.5172 327.184C72.5747 327.359 72.6182 327.538 72.6735 327.714C72.7018 327.813 72.7192 327.905 72.7593 328.007C73.8475 331.551 74.5686 335.187 75.1268 338.853C75.1442 338.968 75.3212 338.971 75.3136 338.848C75.1757 336.543 74.7597 334.271 74.1896 332.035Z" fill="#263238"/>
<path d="M115.461 443.599L114.322 457.108L110.832 498.311H73.4565L69.9672 457.108L68.8291 443.599H115.461Z" fill="#37474F"/>
<path d="M115.461 443.599L114.322 457.108H69.9672L68.8291 443.599H115.461Z" fill="#263238"/>
<path d="M119.128 438.177H65.1602V451.138H119.128V438.177Z" fill="#37474F"/>
<path d="M299.773 184.846C299.546 184.846 299.432 184.724 299.432 184.48V178.21C299.432 177.966 299.546 177.844 299.773 177.844H302.034C303.04 177.844 303.774 178 304.236 178.313C304.699 178.622 304.93 179.127 304.93 179.826C304.93 180.347 304.743 180.762 304.368 181.072C303.994 181.381 303.519 181.586 302.942 181.687V181.697C303.255 181.814 303.491 181.976 303.65 182.185C303.81 182.393 303.94 182.575 304.041 182.732L305.115 184.426C305.294 184.706 305.232 184.846 304.93 184.846H304.08C303.901 184.846 303.755 184.75 303.641 184.558L302.654 182.912C302.547 182.737 302.35 182.545 302.063 182.336C301.78 182.125 301.499 182.019 301.219 182.019H300.857V184.48C300.857 184.724 300.743 184.846 300.516 184.846H299.773ZM300.857 180.808H301.731C302.382 180.808 302.845 180.735 303.118 180.588C303.395 180.438 303.533 180.202 303.533 179.88C303.533 179.529 303.4 179.301 303.133 179.197C302.869 179.089 302.48 179.035 301.966 179.035H300.857V180.808ZM307.346 184.846C307.118 184.846 307.004 184.724 307.004 184.48V178.21C307.004 177.966 307.118 177.844 307.346 177.844H311.536C311.78 177.844 311.902 177.95 311.902 178.161V178.738C311.902 178.949 311.78 179.055 311.536 179.055H308.43V180.608H311.277C311.521 180.608 311.643 180.713 311.643 180.925V181.501C311.643 181.713 311.521 181.819 311.277 181.819H308.43V183.635H311.692C311.936 183.635 312.058 183.741 312.058 183.952V184.529C312.058 184.74 311.936 184.846 311.692 184.846H307.346ZM313.635 184.846C313.4 184.846 313.324 184.739 313.405 184.524L315.798 178.24C315.899 177.976 316.052 177.844 316.257 177.844H316.94C317.145 177.844 317.298 177.976 317.399 178.24L319.792 184.524C319.873 184.739 319.797 184.846 319.562 184.846H318.786C318.571 184.846 318.421 184.734 318.337 184.509L317.839 183.196H315.358L314.86 184.509C314.776 184.734 314.626 184.846 314.411 184.846H313.635ZM315.812 181.985H317.385L316.784 180.432C316.712 180.25 316.668 180.118 316.652 180.036C316.639 179.952 316.624 179.828 316.608 179.665H316.589C316.572 179.828 316.556 179.952 316.54 180.036C316.527 180.118 316.485 180.25 316.413 180.432L315.812 181.985ZM320.9 181.345C320.9 180.222 321.184 179.33 321.754 178.669C322.324 178.008 323.146 177.678 324.22 177.678C324.838 177.678 325.362 177.774 325.792 177.966C326.222 178.158 326.525 178.436 326.7 178.801C326.818 179.042 326.798 179.205 326.642 179.289L326.056 179.602C325.851 179.712 325.682 179.651 325.548 179.416C325.463 179.267 325.306 179.131 325.074 179.011C324.847 178.891 324.578 178.83 324.269 178.83C323.585 178.83 323.107 179.047 322.833 179.48C322.56 179.909 322.423 180.531 322.423 181.345C322.423 182.159 322.56 182.782 322.833 183.215C323.107 183.645 323.585 183.86 324.269 183.86C324.637 183.86 324.946 183.777 325.196 183.611C325.45 183.445 325.626 183.287 325.724 183.137C325.883 182.893 326.053 182.831 326.232 182.951L326.818 183.342C326.977 183.449 326.993 183.612 326.866 183.83C326.678 184.156 326.354 184.434 325.895 184.665C325.436 184.896 324.877 185.012 324.22 185.012C323.162 185.012 322.343 184.682 321.764 184.021C321.188 183.36 320.9 182.468 320.9 181.345ZM328.536 179.094C328.292 179.094 328.17 178.988 328.17 178.777V178.161C328.17 177.95 328.292 177.844 328.536 177.844H333.555C333.799 177.844 333.921 177.95 333.921 178.161V178.777C333.921 178.988 333.799 179.094 333.555 179.094H331.758V184.577C331.758 184.756 331.677 184.846 331.514 184.846H330.577C330.414 184.846 330.333 184.756 330.333 184.577V179.094H328.536Z" fill="white"/>
</svg>
