<svg width="65" height="70" viewBox="0 0 65 70" fill="none" xmlns="http://www.w3.org/2000/svg">
    <path id="Vector" fill-rule="evenodd" clip-rule="evenodd" d="M26.968 14.4576C26.8373 13.337 26.7522 12.2314 26.717 11.1282C26.6637 9.47332 26.8332 7.81719 26.8684 6.16684C26.8828 5.46667 26.892 3.63979 26.9391 3.37935C27.3613 1.11039 29.223 0.854737 29.7654 0.819792C30.0283 0.795632 32.7225 0.632633 33.1492 3.63323C33.6732 7.30214 33.7141 10.9714 33.2806 14.5415C33.7109 17.6174 34.5576 20.7019 35.7397 23.5157C40.444 34.707 50.4144 36.2788 61.2804 36.7322C62.952 36.7924 64.2722 38.1738 64.275 39.8386C64.2772 41.5159 62.96 42.9007 61.2895 42.9658C55.1888 43.2432 44.1696 47.5633 40.1875 52.442C39.3545 53.4634 38.7709 55.9996 38.0439 58.4783C37.03 61.9187 35.8596 65.3134 34.671 66.7048C34.4923 66.921 32.3416 69.1144 31.7177 69.4206C30.2189 70.1453 29.0752 69.6238 28.434 69.1656C27.7927 68.7074 27.085 67.8328 26.856 66.4318C26.6164 64.9677 27.0325 62.01 27.0162 61.3708C26.9566 59.0523 26.7256 54.4972 25.9815 50.5542C25.5802 48.431 25.137 46.4684 24.2896 45.4615C21.1527 41.7346 15.8203 41.9887 11.3225 42.3478C10.8062 42.3841 10.2893 42.4329 9.77431 42.4692C7.92807 42.9134 5.97643 43.2144 3.92325 43.3476C0.822549 43.5526 0.460106 40.693 0.442181 40.5043C0.405743 40.0894 0.300359 37.9564 2.66684 37.2258C2.92472 37.1513 4.8158 36.8346 5.54438 36.709C6.55953 36.5354 7.58334 36.4124 8.61029 36.302C19.2995 33.5673 25.4827 24.6703 26.968 14.4576ZM30.0014 25.9895C33.5553 34.4062 39.3815 38.6831 46.4357 40.8448L46.4344 40.8448C41.8538 42.9519 37.6464 45.6665 35.346 48.4906C34.473 49.5601 33.6102 51.7564 32.8069 54.2313C32.5601 51.8782 32.1923 49.3686 31.6475 47.2131C31.0281 44.7534 30.1305 42.6927 29.0755 41.4374C27.0385 39.0181 24.4 37.5945 21.5249 36.8098C25.1625 33.9036 27.9975 30.193 30.0014 25.9895Z" fill="white"/>
</svg>
