<svg width="65" height="70" viewBox="0 0 65 70" fill="none" xmlns="http://www.w3.org/2000/svg">
<path fill-rule="evenodd" clip-rule="evenodd" d="M26.968 14.0524C26.8373 12.9318 26.7522 11.8261 26.717 10.7229C26.6637 9.06805 26.8332 7.41191 26.8684 5.76157C26.8828 5.06139 26.892 3.23452 26.9391 2.97408C27.3613 0.705121 29.223 0.449463 29.7654 0.414518C30.0283 0.390359 32.7225 0.227359 33.1492 3.22795C33.6732 6.89686 33.7141 10.5661 33.2806 14.1362C33.7109 17.2121 34.5576 20.2966 35.7397 23.1104C40.444 34.3017 50.4144 35.8735 61.2804 36.327C62.952 36.3871 64.2722 37.7685 64.275 39.4333C64.2772 41.1106 62.96 42.4954 61.2895 42.5605C55.1888 42.838 44.1696 47.158 40.1875 52.0367C39.3545 53.0581 38.7709 55.5943 38.0439 58.073C37.03 61.5134 35.8596 64.9082 34.671 66.2995C34.4923 66.5157 32.3416 68.7092 31.7177 69.0153C30.2189 69.74 29.0752 69.2185 28.434 68.7603C27.7927 68.3021 27.085 67.4275 26.856 66.0265C26.6164 64.5624 27.0325 61.6047 27.0162 60.9656C26.9566 58.647 26.7256 54.0919 25.9815 50.1489C25.5802 48.0258 25.137 46.0632 24.2896 45.0563C21.1527 41.3293 15.8203 41.5834 11.3225 41.9425C10.8062 41.9788 10.2893 42.0276 9.77431 42.064C7.92807 42.5081 5.97643 42.8091 3.92325 42.9423C0.822549 43.1474 0.460106 40.2877 0.442181 40.0991C0.405743 39.6842 0.300359 37.5511 2.66684 36.8205C2.92472 36.7461 4.8158 36.4293 5.54438 36.3037C6.55953 36.1302 7.58334 36.0071 8.61029 35.8968C19.2995 33.1621 25.4827 24.265 26.968 14.0524ZM30.0014 25.5842C33.5553 34.001 39.3815 38.2779 46.4357 40.4396L46.4344 40.4395C41.8538 42.5467 37.6464 45.2612 35.346 48.0853C34.473 49.1548 33.6102 51.3512 32.8069 53.826C32.5601 51.4729 32.1923 48.9634 31.6475 46.8078C31.0281 44.3481 30.1305 42.2875 29.0755 41.0321C27.0385 38.6129 24.4 37.1893 21.5249 36.4045C25.1625 33.4983 27.9975 29.7877 30.0014 25.5842Z" fill="#F4C44C"/>
</svg>
