<svg width="100%" height="100%" id="svg" viewBox="0 0 1440 690" xmlns="http://www.w3.org/2000/svg" class="transition duration-300 ease-in-out delay-150"><path d="M 0,700 C 0,700 0,175 0,175 C 120.57142857142861,199.21428571428572 241.14285714285722,223.42857142857142 351,204 C 460.8571428571428,184.57142857142858 559.9999999999998,121.5 692,129 C 824.0000000000002,136.5 988.8571428571429,214.57142857142858 1119,234 C 1249.142857142857,253.42857142857142 1344.5714285714284,214.21428571428572 1440,175 C 1440,175 1440,700 1440,700 Z" stroke="none" stroke-width="0" fill="#2fbfbf" fill-opacity="0.4" class="transition-all duration-300 ease-in-out delay-150 path-0"></path><path d="M 0,700 C 0,700 0,350 0,350 C 152.03571428571428,335.82142857142856 304.07142857142856,321.64285714285717 427,318 C 549.9285714285714,314.35714285714283 643.7499999999999,321.25 738,337 C 832.2500000000001,352.75 926.9285714285713,377.3571428571429 1044,381 C 1161.0714285714287,384.6428571428571 1300.5357142857142,367.32142857142856 1440,350 C 1440,350 1440,700 1440,700 Z" stroke="none" stroke-width="0" fill="#2fbfbf" fill-opacity="0.53" class="transition-all duration-300 ease-in-out delay-150 path-1"></path><path d="M 0,700 C 0,700 0,525 0,525 C 102.07142857142858,536.5714285714286 204.14285714285717,548.1428571428571 328,535 C 451.85714285714283,521.8571428571429 597.5,484 733,482 C 868.5,480 993.8571428571429,513.8571428571429 1110,527 C 1226.142857142857,540.1428571428571 1333.0714285714284,532.5714285714286 1440,525 C 1440,525 1440,700 1440,700 Z" stroke="none" stroke-width="0" fill="#2fbfbf" fill-opacity="1" class="transition-all duration-300 ease-in-out delay-150 path-2"></path></svg>




